<?xml version="1.0" encoding="utf-8"?>
<!-- Generator: Adobe Illustrator 23.0.1, SVG Export Plug-In . SVG Version: 6.00 Build 0)  -->
<svg version="1.1" id="Layer_1" xmlns="http://www.w3.org/2000/svg" xmlns:xlink="http://www.w3.org/1999/xlink" x="0px" y="0px"
	 viewBox="0 0 843 823.3" style="enable-background:new 0 0 843 823.3;" xml:space="preserve">
<style type="text/css">
	.st0{fill:#8F1537;}
	.st1{fill:#C7004C;}
	.st2{fill:url(#SVGID_1_);}
	.st3{fill:url(#SVGID_2_);}
	.st4{fill:#FFFFFF;}
	.st5{fill:url(#SVGID_3_);}
	.st6{fill:url(#SVGID_4_);}
	.st7{fill:url(#SVGID_5_);}
	.st8{fill:url(#SVGID_6_);}
</style>
<g>
	<g id="Layer_1-2">
		<path class="st0" d="M566.8,15.5c-22.4,118.2-253.5,225-79,420.9C605.1,370.4,731.3,206.8,566.8,15.5z"/>
		<path class="st1" d="M567.5,22.4c-32.6,118.4-250.2,221.9-79.1,421.1C605.8,377.4,729.5,209.1,567.5,22.4z"/>
		
			<linearGradient id="SVGID_1_" gradientUnits="userSpaceOnUse" x1="657.7394" y1="-18.9759" x2="822.6194" y2="236.4541" gradientTransform="matrix(0.7447 -0.456 0.5035 0.8694 -94.5842 492.6595)">
			<stop  offset="0" style="stop-color:#DADEDA"/>
			<stop  offset="0.82" style="stop-color:#9CB39C"/>
		</linearGradient>
		<path class="st2" d="M508.3,44.8c-12.1,119.6-184.3,192.9-21,394C576.6,385.7,662.8,240.7,508.3,44.8z"/>
		
			<linearGradient id="SVGID_2_" gradientUnits="userSpaceOnUse" x1="809.0334" y1="-50.428" x2="622.7534" y2="244.642" gradientTransform="matrix(0.9729 -0.5581 0.5035 0.8694 -238.0746 558.3641)">
			<stop  offset="0" style="stop-color:#EEF2EE"/>
			<stop  offset="1" style="stop-color:#FFFFFF"/>
		</linearGradient>
		<path class="st3" d="M508.5,49.8c-14.4,109.9-184.3,192.8-21,394C576.9,390.8,660.6,241,508.5,49.8z"/>
		<path class="st0" d="M48.4,315.4c113.4,40.1,322-105.9,403.6,143.4C335.8,527.2,130.9,553.9,48.4,315.4z"/>
		<path class="st1" d="M54,319.6C172.7,351,371.6,214.9,457.7,463C341.5,531.2,133.8,553.5,54,319.6z"/>
		<path class="st4" d="M100.3,278c109.4,49.7,258.9-65.4,348.7,181.4C358.3,509.9,191.9,510.2,100.3,278z"/>
		
			<linearGradient id="SVGID_3_" gradientUnits="userSpaceOnUse" x1="542.4849" y1="565.826" x2="302.4949" y2="274.8361" gradientTransform="matrix(0.9906 -0.1366 0.1366 0.9906 -207.5668 4.0647)">
			<stop  offset="0" style="stop-color:#E8EDE8"/>
			<stop  offset="0.88" style="stop-color:#DADEDA"/>
		</linearGradient>
		<path class="st5" d="M107.3,282.4c102.2,42.8,259.3-62.2,351.1,180C367.6,513,196,510.1,107.3,282.4z"/>
		<path class="st0" d="M383,809.8c16.6-103.8,196.1-184.2,89.6-320.8C385.4,595.8,290.5,610.5,383,809.8z"/>
		<path class="st1" d="M384,802.8c27.9-101.2,195.9-182.3,90.7-319.4C387.8,591.9,294,619,384,802.8z"/>
		<path class="st4" d="M427.2,790.4c12.7-99.8,147.8-165.8,45.9-304C407.4,586.5,333.4,602.3,427.2,790.4z"/>
		
			<linearGradient id="SVGID_4_" gradientUnits="userSpaceOnUse" x1="613.2998" y1="736.5195" x2="496.3097" y2="681.0195" gradientTransform="matrix(0.9906 -0.1366 0.1366 0.9906 -207.5668 4.0647)">
			<stop  offset="0" style="stop-color:#E8EDE8"/>
			<stop  offset="0.88" style="stop-color:#DADEDA"/>
		</linearGradient>
		<path class="st6" d="M428.1,786.6c14.2-96.3,148.8-166.2,46.9-304.4C411.9,582.6,335.6,603.8,428.1,786.6z"/>
		<path class="st0" d="M828.6,551.9c-82.9-37.3-257.7,76.8-322.3-83.9C640.3,445.6,708.8,375.6,828.6,551.9z"/>
		<path class="st1" d="M824.1,549.7c-101.4-26.8-256,77.7-321.6-82.2C640,447,710.6,379.5,824.1,549.7z"/>
		
			<linearGradient id="SVGID_5_" gradientUnits="userSpaceOnUse" x1="642.9" y1="633.91" x2="911.4" y2="633.91" gradientTransform="matrix(0.9906 -0.1366 0.1366 0.9906 -207.5668 4.0647)">
			<stop  offset="0" style="stop-color:#DADEDA"/>
			<stop  offset="0.82" style="stop-color:#9CB39C"/>
		</linearGradient>
		<path class="st7" d="M792.3,583.1c-91.4-41.9-218.8,43.1-286.8-114.5C623.9,464.6,674.3,401.8,792.3,583.1z"/>
		
			<linearGradient id="SVGID_6_" gradientUnits="userSpaceOnUse" x1="920.2189" y1="694.9818" x2="636.7188" y2="556.9818" gradientTransform="matrix(0.9906 -0.1366 0.1366 0.9906 -207.5668 4.0647)">
			<stop  offset="0" style="stop-color:#EEF2EE"/>
			<stop  offset="1" style="stop-color:#FFFFFF"/>
		</linearGradient>
		<path class="st8" d="M787.6,579.5c-90.4-36.3-218.5,45-286.6-112.6C619.4,463,676,407.7,787.6,579.5z"/>
		<path class="st1" d="M168.5,189.4c-0.4-2.7-0.4-5.4-0.1-8.1c0.2-2.7,1.2-5.2,2.7-7.4c1.5-2.1,3.7-3.8,6.1-4.8
			c2.5-0.9,5.1-1.5,7.8-1.6c2.7-0.1,5.4,0.1,8,0.4c2.7,0.4,5.3,1,7.9,1.6c5.2,1.4,10.4,3.1,15.4,5.1c10.1,4.2,19.8,9,29.2,14.4
			c9.4,5.4,18.6,11.3,27.5,17.5c18,12.5,35.1,26,51.3,40.6c16.2,14.5,31.7,29.9,46.2,46.1l14,15.5l-9.3-18.7
			c-9.7-19.4-19-39.1-27.7-58.9c-2.2-4.9-4.4-9.9-6.5-14.9c-2.1-5-4.2-10-6.2-15c-4.1-10-8.1-20.1-11.8-30.3
			c-1.9-5.1-3.7-10.2-5.4-15.3c-1.7-5.1-3.3-10.2-4.9-15.4c-1.6-5.1-3-10.4-4.3-15.6c-1.2-5.2-2.4-10.5-3.2-15.8
			c-0.8-5.2-1.4-10.6-1.5-15.9c-0.1-1.3-0.1-2.7,0.1-3.9s0.1-2.6,0.3-4c0.3-2.6,0.7-5.1,1.5-7.7c0.7-2.4,1.9-4.8,3.3-6.9
			c1.4-2.1,3.4-3.9,5.5-5.2c2.2-1.3,4.7-2.3,7.4-2.6c2.7-0.5,5.4-0.6,8-0.5l0.1-0.7c-2.8-0.3-5.5-0.5-8.2-0.3
			c-2.8,0.3-5.6,1.1-8.2,2.3c-2.6,1.3-4.8,3.2-6.6,5.4c-1.8,2.3-3.3,4.8-4.2,7.5c-0.9,2.7-1.7,5.4-2.1,8.2c-0.2,1.3-0.4,2.8-0.5,4.2
			c-0.1,1.4-0.2,2.8-0.2,4.2c-0.1,5.6,0.1,11.1,0.8,16.6c1.3,10.9,3.5,21.7,6.4,32.3c1.3,5.4,2.9,10.6,4.6,15.8
			c1.7,5.2,3.4,10.4,5.2,15.6s3.7,10.3,5.7,15.4c1.9,5.1,4,10.1,6,15.2c2,5.1,4.2,10,6.4,15.1c2.2,5,4.4,10,6.7,14.9
			c4.6,9.9,9.3,19.7,14.2,29.4c4.9,9.7,9.7,19.5,14.8,29.1l4.6-3.2c-14.9-16.1-30.8-31.4-47.4-45.8c-16.6-14.5-34-27.8-52.4-40
			c-9.1-6.1-18.6-11.8-28.2-17c-9.6-5.3-19.7-10-29.9-13.9c-5.1-2-10.5-3.6-15.8-4.9c-2.7-0.6-5.4-1.1-8.2-1.4
			c-2.8-0.3-5.5-0.4-8.3-0.3c-2.8,0.2-5.5,0.8-8.1,1.8c-2.7,1.1-4.9,2.9-6.5,5.2c-1.5,2.3-2.4,5.1-2.7,7.9c-0.2,2.8-0.1,5.6,0.2,8.2
			L168.5,189.4z"/>
		<path class="st1" d="M382.5,304.7l-6-12.1c-10.1-20.2-19.4-40-27.7-59c-1.8-4.1-4.1-9.4-6.5-15c-2-4.7-3.9-9.5-5.9-14.1l-0.4-0.9
			c-4.6-11.2-8.5-21.1-11.8-30.3c-1.9-5.3-3.8-10.4-5.4-15.3c-1.5-4.6-3.3-9.7-5-15.5c-1.7-5.5-3.1-10.7-4.3-15.7
			c-1.4-5.9-2.4-11.1-3.2-15.8c-1.1-6.3-1.6-12.6-1.9-19c0-0.9-0.1-1.9,0-2.8l0-1.3c0-0.4,0-0.8,0-1.1c0.1-0.9,0.1-1.9,0.2-2.9
			c0.2-2.7,0.8-5.3,1.5-7.9c0.8-2.5,1.9-5,3.4-7.2c1.5-2.2,3.6-4.1,5.9-5.5l0.3-0.1l-0.3,0.1c-2.5,1.2-4.6,3-6.4,5.1
			s-3.1,4.6-4.1,7.2c-1,2.6-1.7,5.3-2,8.1c-0.2,0.9-0.2,1.9-0.4,2.9c0,0.4-0.1,0.7-0.1,1.1s-0.1,0.8-0.1,1.2
			c-0.1,0.9-0.1,1.9-0.2,2.9c0,6.5,0.4,13,1.2,19.4c1.4,10.9,3.5,21.6,6.4,32.2c1.2,4.6,2.6,9.6,4.6,15.7c1.6,4.9,3.3,10.2,5.2,15.5
			c1.7,4.7,3.5,9.7,5.7,15.4c2,5.3,4.2,10.6,6,15.2c1.8,4.6,3.9,9.2,5.8,13.6l0.6,1.3c2.4,5.5,4.8,10.8,6.7,14.9
			c4.2,9.1,8.8,18.8,14.2,29.4c2,4,3.9,7.9,6,11.9l4.2,7.1l-5.8-5.9c-10.9-11-22.3-21.7-33.8-31.7c-16.5-14.4-34-27.7-52.2-39.9
			c-9.8-6.4-18.9-12-28.1-17c-9.6-5.3-19.5-9.9-29.8-13.9c-1.6-0.6-3.1-1.2-4.6-1.7c1.4,0.5,3,1.1,4.6,1.7
			c10.2,4.2,19.9,9,29.4,14.4c9,5.1,18.1,10.9,27.7,17.6c18,12.5,35.1,26.1,51.3,40.7c16.2,14.5,31.7,30.1,46.4,46.3L382.5,304.7z"
			/>
	</g>
</g>
</svg>
