<?xml version="1.0" encoding="utf-8"?>
<!-- Generator: Adobe Illustrator 23.0.1, SVG Export Plug-In . SVG Version: 6.00 Build 0)  -->
<svg version="1.1" id="Layer_1" xmlns="http://www.w3.org/2000/svg" xmlns:xlink="http://www.w3.org/1999/xlink" x="0px" y="0px"
	 viewBox="0 0 273.6 66.4" style="enable-background:new 0 0 273.6 66.4;" xml:space="preserve">
<style type="text/css">
	.st0{fill:#FFF4D2;}
</style>
<title>Asset 2</title>
<g>
	<g id="Layer_5">
		<path class="st0" d="M273.6,66.4c-0.8-16.8-15-29.8-31.8-29.1c-4.5,0.2-9,1.4-13,3.6c-1.7-9.4-9.9-16.2-19.4-16.2h-0.8
			c-6.3-19-26.9-29.2-45.8-22.8c-13.8,4.6-23.6,17.1-24.6,31.7c-0.5-0.1-1-0.1-1.6-0.1c-8.2,0-14.8,6.6-14.8,14.8
			c0,1.5,0.2,2.9,0.7,4.4c-3.4-1.4-7-2.1-10.7-2.1c-2.8,0-5.6,0.4-8.3,1.3c0.1-0.6,0.1-1.2,0.1-1.8c0-7.9-6.4-14.3-14.3-14.3
			c-3.9,0-7.5,1.6-10.2,4.3c-15.1-10-35.4-5.8-45.4,9.3c-0.1,0.2-0.3,0.4-0.4,0.7C19.4,45.4,4.7,52.8,0,66.4H273.6z"/>
	</g>
</g>
</svg>
