<svg xmlns="http://www.w3.org/2000/svg" viewBox="0 0 470.31 136.44"><defs><style>.cls-1,.cls-2{fill:#fff4d2;}.cls-1{opacity:0.56;}</style></defs><title>Asset 3</title><g id="Layer_2" data-name="Layer 2"><g id="Layer_5" data-name="Layer 5"><path class="cls-1" d="M283.13,82.28c.05-.85.08-1.71.08-2.57a45.25,45.25,0,0,0-86.51-18.6,42.28,42.28,0,0,0-6.54-5.61,30.19,30.19,0,0,0,.49-5.33,29.66,29.66,0,0,0-38.41-28.34,56,56,0,0,0-98.55,19.8A45.48,45.48,0,0,0,0,82.28Z"/><path class="cls-2" d="M196.74,136.44a30.46,30.46,0,0,1,44.76-25.51,19.76,19.76,0,0,1,19.43-16.21c.27,0,.53,0,.78,0a36.22,36.22,0,0,1,70.48,8.84c.51,0,1-.08,1.55-.08a14.82,14.82,0,0,1,14.82,14.82,15.07,15.07,0,0,1-.64,4.33,28.18,28.18,0,0,1,19.08-.87,13.53,13.53,0,0,1-.12-1.81A14.26,14.26,0,0,1,391.39,110a32.75,32.75,0,0,1,45.79,9.9,26.35,26.35,0,0,1,33.13,16.5Z"/></g></g></svg>