<svg xmlns="http://www.w3.org/2000/svg" xmlns:xlink="http://www.w3.org/1999/xlink" viewBox="0 0 168.5 142.62"><defs><style>.cls-1{isolation:isolate;}.cls-113,.cls-2{fill:#fff;}.cls-3{fill:#c7004c;}.cls-4{mix-blend-mode:multiply;}.cls-113,.cls-5{opacity:0;}.cls-6{opacity:0.02;}.cls-7{fill:#fafbfc;}.cls-8{opacity:0.04;}.cls-9{fill:#f5f7f9;}.cls-10{opacity:0.06;}.cls-11{fill:#f1f3f6;}.cls-12{opacity:0.08;}.cls-13{fill:#eceff3;}.cls-14{opacity:0.1;}.cls-15{fill:#e7ebf0;}.cls-16{opacity:0.12;}.cls-17{fill:#e2e7ed;}.cls-18{opacity:0.14;}.cls-19{fill:#dee3e9;}.cls-20{opacity:0.16;}.cls-21{fill:#d9dfe6;}.cls-22{opacity:0.18;}.cls-23{fill:#d4dce3;}.cls-24{opacity:0.2;}.cls-25{fill:#cfd8e0;}.cls-26{opacity:0.22;}.cls-27{fill:#cad4dd;}.cls-28{opacity:0.24;}.cls-29{fill:#c6d0da;}.cls-30{opacity:0.27;}.cls-31{fill:#c1ccd7;}.cls-32{opacity:0.29;}.cls-33{fill:#bcc8d4;}.cls-34{opacity:0.31;}.cls-121,.cls-35{fill:#b7c4d1;}.cls-36{opacity:0.33;}.cls-37{fill:#b3c0ce;}.cls-38{opacity:0.35;}.cls-122,.cls-39{fill:#aebccb;}.cls-40{opacity:0.37;}.cls-41{fill:#a9b8c8;}.cls-42{opacity:0.39;}.cls-43{fill:#a4b4c4;}.cls-44{opacity:0.41;}.cls-45{fill:#9fb0c1;}.cls-46{opacity:0.43;}.cls-47{fill:#9bacbe;}.cls-48{opacity:0.45;}.cls-49{fill:#96a8bb;}.cls-50{opacity:0.47;}.cls-51{fill:#91a4b8;}.cls-52{opacity:0.49;}.cls-53{fill:#8ca0b5;}.cls-54{opacity:0.51;}.cls-55{fill:#889db2;}.cls-56{opacity:0.53;}.cls-57{fill:#8399af;}.cls-58{opacity:0.55;}.cls-59{fill:#7e95ac;}.cls-60{opacity:0.57;}.cls-61{fill:#7991a9;}.cls-62{opacity:0.59;}.cls-63{fill:#758da6;}.cls-64{opacity:0.61;}.cls-65{fill:#7089a3;}.cls-66{opacity:0.63;}.cls-67{fill:#6b859f;}.cls-68{opacity:0.65;}.cls-69{fill:#66819c;}.cls-70{opacity:0.67;}.cls-71{fill:#617d99;}.cls-72{opacity:0.69;}.cls-73{fill:#5d7996;}.cls-74{opacity:0.71;}.cls-75{fill:#587593;}.cls-76{opacity:0.73;}.cls-77{fill:#537190;}.cls-78{opacity:0.76;}.cls-79{fill:#4e6d8d;}.cls-80{opacity:0.78;}.cls-81{fill:#4a698a;}.cls-82{opacity:0.8;}.cls-83{fill:#456587;}.cls-84{opacity:0.82;}.cls-85{fill:#406184;}.cls-86{opacity:0.84;}.cls-87{fill:#3b5e81;}.cls-88{opacity:0.86;}.cls-89{fill:#365a7e;}.cls-90{opacity:0.88;}.cls-91{fill:#32567a;}.cls-92{opacity:0.9;}.cls-93{fill:#2d5277;}.cls-94{opacity:0.92;}.cls-95{fill:#284e74;}.cls-96{opacity:0.94;}.cls-97{fill:#234a71;}.cls-98{opacity:0.96;}.cls-99{fill:#1f466e;}.cls-100{opacity:0.98;}.cls-101{fill:#1a426b;}.cls-102{fill:#153e68;}.cls-103{fill:#b3c3ce;}.cls-104{fill:url(#linear-gradient);}.cls-105{fill:#f5f6f2;}.cls-106{fill:url(#linear-gradient-2);}.cls-107{fill:url(#linear-gradient-3);}.cls-108{fill:url(#radial-gradient);}.cls-109{fill:url(#linear-gradient-4);}.cls-110{fill:url(#linear-gradient-5);}.cls-111{fill:#fbfbfb;}.cls-112{fill:url(#radial-gradient-2);}.cls-114{fill:#f6f8f9;}.cls-114,.cls-144{opacity:0.04;}.cls-115{fill:#edf0f3;}.cls-115,.cls-146{opacity:0.08;}.cls-116{fill:#e4e9ee;}.cls-116,.cls-148{opacity:0.12;}.cls-117{fill:#dbe1e8;}.cls-117,.cls-150{opacity:0.16;}.cls-118{fill:#d2dae2;}.cls-118,.cls-152{opacity:0.2;}.cls-119{fill:#c9d3dc;}.cls-119,.cls-154{opacity:0.24;}.cls-120{fill:#c0cbd6;}.cls-120,.cls-156{opacity:0.28;}.cls-121,.cls-158{opacity:0.32;}.cls-122,.cls-160{opacity:0.36;}.cls-123{fill:#a5b5c5;}.cls-123,.cls-162{opacity:0.4;}.cls-124{fill:#9caebf;}.cls-124,.cls-164{opacity:0.44;}.cls-125{fill:#93a6b9;}.cls-125,.cls-166{opacity:0.48;}.cls-126{fill:#8b9fb4;}.cls-126,.cls-168{opacity:0.52;}.cls-127{fill:#8297ae;}.cls-127,.cls-170{opacity:0.56;}.cls-128{fill:#7990a8;}.cls-128,.cls-172{opacity:0.6;}.cls-129{fill:#7089a2;}.cls-129,.cls-174{opacity:0.64;}.cls-130{fill:#67819c;}.cls-130,.cls-176{opacity:0.68;}.cls-131{fill:#5e7a97;}.cls-131,.cls-178{opacity:0.72;}.cls-132{fill:#557291;}.cls-132,.cls-180{opacity:0.76;}.cls-133{fill:#4c6b8b;}.cls-133,.cls-182{opacity:0.8;}.cls-134{fill:#436485;}.cls-134,.cls-184{opacity:0.84;}.cls-135{fill:#3a5c7f;}.cls-135,.cls-186{opacity:0.88;}.cls-136{fill:#31557a;}.cls-136,.cls-188{opacity:0.92;}.cls-137{fill:#284d74;}.cls-137,.cls-190{opacity:0.96;}.cls-138{fill:url(#linear-gradient-6);}.cls-139{fill:url(#linear-gradient-7);}.cls-140{fill:url(#linear-gradient-8);}.cls-141{fill:url(#linear-gradient-9);}.cls-142{fill:url(#linear-gradient-10);}.cls-143{fill:url(#linear-gradient-11);}.cls-145{fill:#fcfcfc;}.cls-147{fill:#f9f9f8;}.cls-149{fill:#f6f6f5;}.cls-151{fill:#f2f3f1;}.cls-153{fill:#eff1ee;}.cls-155{fill:#eceeea;}.cls-157{fill:#e9ebe7;}.cls-159{fill:#e6e8e3;}.cls-161{fill:#e3e5e0;}.cls-163{fill:#dfe2dc;}.cls-165{fill:#dcdfd9;}.cls-167{fill:#d9dcd5;}.cls-169{fill:#d6dad2;}.cls-171{fill:#d3d7ce;}.cls-173{fill:#d0d4cb;}.cls-175{fill:#ccd1c7;}.cls-177{fill:#c9cec4;}.cls-179{fill:#c6cbc0;}.cls-181{fill:#c3c8bd;}.cls-183{fill:#c0c5b9;}.cls-185{fill:#bdc3b6;}.cls-187{fill:#b9c0b2;}.cls-189{fill:#b6bdaf;}.cls-191{fill:#b3baab;}.cls-192{fill:#b0b7a8;}.cls-193{fill:#d1d1d1;}.cls-194{fill:#d0d0cf;}.cls-195{fill:#cecfce;}.cls-196{fill:#cdcecc;}.cls-197{fill:#cccdca;}.cls-198{fill:#caccc9;}.cls-199{fill:#c9cbc7;}.cls-200{fill:#c8cac6;}.cls-201{fill:#c6c9c4;}.cls-202{fill:#c5c8c2;}.cls-203{fill:#c4c7c1;}.cls-204{fill:#c2c6bf;}.cls-205{fill:#c1c5bd;}.cls-206{fill:#c0c3bc;}.cls-207{fill:#bfc2ba;}.cls-208{fill:#bdc1b8;}.cls-209{fill:#bcc0b7;}.cls-210{fill:#bbbfb5;}.cls-211{fill:#b9beb3;}.cls-212{fill:#b8bdb2;}.cls-213{fill:#b7bcb0;}.cls-214{fill:#b5bbaf;}.cls-215{fill:#b4baad;}.cls-216{fill:#b3b9ab;}.cls-217{fill:#b1b8aa;}.cls-218{fill:url(#linear-gradient-12);}.cls-219{fill:url(#linear-gradient-13);}.cls-220{fill:url(#linear-gradient-14);}.cls-221{fill:#f2f5f7;}.cls-222{fill:url(#linear-gradient-15);}.cls-223{fill:#e6ebf0;}.cls-224{fill:url(#linear-gradient-16);}.cls-225{fill:url(#linear-gradient-17);}.cls-226{fill:url(#linear-gradient-18);}.cls-227{fill:#cbd3dd;}.cls-228{fill:url(#linear-gradient-20);}.cls-229{fill:url(#radial-gradient-3);}.cls-230{fill:url(#radial-gradient-4);}</style><linearGradient id="linear-gradient" x1="85.95" y1="83.63" x2="150.91" y2="83.63" gradientUnits="userSpaceOnUse"><stop offset="0" stop-color="#fcfcfe"/><stop offset="0.53" stop-color="#f0f2f1"/><stop offset="1" stop-color="#b8cfe7"/></linearGradient><linearGradient id="linear-gradient-2" x1="88.98" y1="46.96" x2="143.92" y2="46.96" gradientUnits="userSpaceOnUse"><stop offset="0" stop-color="#fefefe"/><stop offset="0.26" stop-color="#f1f4f7"/><stop offset="0.48" stop-color="#eef2f5"/><stop offset="0.63" stop-color="#e5eaf0"/><stop offset="0.73" stop-color="#dae0e9"/><stop offset="1" stop-color="#b9c6d6"/></linearGradient><linearGradient id="linear-gradient-3" x1="68.49" y1="37.31" x2="110.77" y2="37.31" gradientUnits="userSpaceOnUse"><stop offset="0" stop-color="#fbfbfd"/><stop offset="0.41" stop-color="#fcfcfd"/><stop offset="0.55" stop-color="#f5f6f3"/><stop offset="0.89" stop-color="#d4d4d5"/><stop offset="0.98" stop-color="#c0c1c4"/></linearGradient><radialGradient id="radial-gradient" cx="81.96" cy="75.32" r="78.18" gradientUnits="userSpaceOnUse"><stop offset="0" stop-color="#fdfdfd"/><stop offset="0.28" stop-color="#fcfdfd"/><stop offset="0.56" stop-color="#eef1f5"/><stop offset="0.94" stop-color="#b5c1d4"/><stop offset="1" stop-color="#b5c1d4"/></radialGradient><linearGradient id="linear-gradient-4" x1="48.87" y1="79.37" x2="48.87" y2="15.4" gradientUnits="userSpaceOnUse"><stop offset="0" stop-color="#fdfdff"/><stop offset="0.26" stop-color="#f1f2f2"/><stop offset="0.43" stop-color="#eef0f1"/><stop offset="0.54" stop-color="#e5ebee"/><stop offset="0.64" stop-color="#d7e1e8"/><stop offset="0.72" stop-color="#c2d4e1"/><stop offset="0.73" stop-color="#bfd2e0"/><stop offset="1" stop-color="#afc0cc"/></linearGradient><linearGradient id="linear-gradient-5" x1="49.37" y1="79.37" x2="49.37" y2="15.37" gradientUnits="userSpaceOnUse"><stop offset="0" stop-color="#fcfdfd"/><stop offset="0.41" stop-color="#fdfdfd"/><stop offset="0.55" stop-color="#f5f6f9"/><stop offset="0.89" stop-color="#d4dbe5"/><stop offset="0.98" stop-color="#c0cbda"/></linearGradient><radialGradient id="radial-gradient-2" cx="56.72" cy="90.42" r="22.61" gradientUnits="userSpaceOnUse"><stop offset="0" stop-color="#f6f6f7"/><stop offset="1" stop-color="#f9fbfa"/></radialGradient><linearGradient id="linear-gradient-6" x1="31.94" y1="82.68" x2="75.33" y2="82.68" gradientTransform="matrix(-0.91, 0.42, 0.42, 0.91, 121.55, -25.2)" gradientUnits="userSpaceOnUse"><stop offset="0.17" stop-color="#eef1f5"/><stop offset="0.73" stop-color="#f8f9fb"/><stop offset="0.77" stop-color="#fafafc"/><stop offset="1" stop-color="#fefefe"/></linearGradient><linearGradient id="linear-gradient-7" x1="85.62" y1="98.44" x2="85.62" y2="73.44" gradientTransform="matrix(-0.91, 0.42, 0.42, 0.91, 121.55, -25.2)" gradientUnits="userSpaceOnUse"><stop offset="0" stop-color="#e1e7ed"/><stop offset="0.88" stop-color="#f8f9fb"/><stop offset="1" stop-color="#fefefe"/></linearGradient><linearGradient id="linear-gradient-8" x1="74.02" y1="68.5" x2="48.91" y2="37.74" gradientTransform="matrix(-0.91, 0.42, 0.42, 0.91, 121.55, -25.2)" gradientUnits="userSpaceOnUse"><stop offset="0.24" stop-color="#fefefe"/><stop offset="0.31" stop-color="#f2f4f7"/><stop offset="1" stop-color="#c2cdda"/></linearGradient><linearGradient id="linear-gradient-9" x1="39.53" y1="80.88" x2="54.51" y2="69.47" gradientTransform="matrix(-0.91, 0.42, 0.42, 0.91, 121.55, -25.2)" gradientUnits="userSpaceOnUse"><stop offset="0" stop-color="#a0b2c6"/><stop offset="0.05" stop-color="#92a6bd"/><stop offset="0.44" stop-color="#ccd6e1"/><stop offset="1" stop-color="#eef1f5"/></linearGradient><linearGradient id="linear-gradient-10" x1="75.44" y1="72.2" x2="98.04" y2="30.62" gradientTransform="matrix(-0.91, 0.42, 0.42, 0.91, 121.55, -25.2)" gradientUnits="userSpaceOnUse"><stop offset="0" stop-color="#fefefe"/><stop offset="0.14" stop-color="#fafbfc"/><stop offset="0.28" stop-color="#f4f6f8"/><stop offset="0.44" stop-color="#e7ebf0"/><stop offset="0.9" stop-color="#d9e0e8"/><stop offset="1" stop-color="#bdc9d7"/></linearGradient><linearGradient id="linear-gradient-11" x1="102.52" y1="81.28" x2="102.52" y2="75.85" gradientTransform="matrix(-0.91, 0.42, 0.42, 0.91, 121.55, -25.2)" gradientUnits="userSpaceOnUse"><stop offset="0" stop-color="#98abc1"/><stop offset="0.15" stop-color="#90a4bc"/><stop offset="1" stop-color="#6481a2"/></linearGradient><linearGradient id="linear-gradient-12" x1="104.85" y1="81.37" x2="104.85" y2="73.3" gradientTransform="matrix(-0.91, 0.42, 0.42, 0.91, 121.55, -25.2)" gradientUnits="userSpaceOnUse"><stop offset="0" stop-color="#b5c3d3"/><stop offset="1" stop-color="#dee4eb"/></linearGradient><linearGradient id="linear-gradient-13" x1="70.91" y1="76.39" x2="75.89" y2="67.23" gradientTransform="matrix(-0.91, 0.42, 0.42, 0.91, 121.55, -25.2)" gradientUnits="userSpaceOnUse"><stop offset="0" stop-color="#fcfcfd"/><stop offset="1" stop-color="#fbfbfc"/></linearGradient><linearGradient id="linear-gradient-14" x1="82.02" y1="77.31" x2="108.13" y2="63.85" gradientTransform="matrix(-0.91, 0.42, 0.42, 0.91, 121.55, -25.2)" gradientUnits="userSpaceOnUse"><stop offset="0" stop-color="#fefefe"/><stop offset="0.14" stop-color="#f9fafc"/><stop offset="0.27" stop-color="#f3f5f8"/><stop offset="0.44" stop-color="#e2e8ee"/><stop offset="0.9" stop-color="#d2dae4"/><stop offset="1" stop-color="#b1bfd0"/></linearGradient><linearGradient id="linear-gradient-15" x1="84.4" y1="56.44" x2="109.52" y2="60.29" gradientTransform="matrix(-0.91, 0.42, 0.42, 0.91, 121.55, -25.2)" gradientUnits="userSpaceOnUse"><stop offset="0" stop-color="#d3dbe5"/><stop offset="0.03" stop-color="#dbe1ea"/><stop offset="0.13" stop-color="#eef1f5"/><stop offset="0.23" stop-color="#f9fafc"/><stop offset="0.33" stop-color="#fdfdfe"/><stop offset="0.72" stop-color="#f4f6f9"/><stop offset="0.8" stop-color="#eceff4"/><stop offset="0.89" stop-color="#dae1e9"/><stop offset="1" stop-color="#c7d2de"/></linearGradient><linearGradient id="linear-gradient-16" x1="89.96" y1="92.51" x2="82.78" y2="73.66" gradientTransform="matrix(-0.91, 0.42, 0.42, 0.91, 121.55, -25.2)" gradientUnits="userSpaceOnUse"><stop offset="0" stop-color="#abbbcd"/><stop offset="0.58" stop-color="#e5eaef"/><stop offset="0.6" stop-color="#e7ecf0"/><stop offset="0.78" stop-color="#f6f7f9"/><stop offset="0.94" stop-color="#fbfbfc"/></linearGradient><linearGradient id="linear-gradient-17" x1="58.54" y1="47.79" x2="49.31" y2="36.48" gradientTransform="matrix(-0.91, 0.42, 0.42, 0.91, 121.55, -25.2)" gradientUnits="userSpaceOnUse"><stop offset="0" stop-color="#eef1f5"/><stop offset="0.27" stop-color="#fefefe"/><stop offset="0.5" stop-color="#f7f9fa"/><stop offset="0.73" stop-color="#eaeef2"/><stop offset="1" stop-color="#cad4df"/></linearGradient><linearGradient id="linear-gradient-18" x1="85.2" y1="42.16" x2="91.15" y2="30.83" gradientTransform="matrix(-0.9, 0.43, 0.43, 0.9, 115.52, -24.72)" gradientUnits="userSpaceOnUse"><stop offset="0" stop-color="#fbfcfd"/><stop offset="0.52" stop-color="#f3f5f8"/><stop offset="0.74" stop-color="#f0f3f6"/><stop offset="0.89" stop-color="#e7ecf1"/><stop offset="1" stop-color="#dbe2ea"/></linearGradient><linearGradient id="linear-gradient-20" x1="58.03" y1="73.5" x2="49.4" y2="92.62" gradientUnits="userSpaceOnUse"><stop offset="0" stop-color="#aebcd0"/><stop offset="0.22" stop-color="#859bb9"/><stop offset="0.53" stop-color="#a1b1c9"/><stop offset="1" stop-color="#97a9c3"/></linearGradient><radialGradient id="radial-gradient-3" cx="1.42" cy="61.12" r="13.5" gradientTransform="matrix(0.74, 0.24, -0.36, 1.13, 112.16, -53.5)" gradientUnits="userSpaceOnUse"><stop offset="0" stop-color="#f5f5f5"/><stop offset="0.25" stop-color="#f9f9f9"/><stop offset="1" stop-color="#fff"/></radialGradient><radialGradient id="radial-gradient-4" cx="-147.57" cy="139.93" r="12.19" gradientTransform="matrix(0.49, 0.23, -0.63, 1.32, 296.28, -110.75)" gradientUnits="userSpaceOnUse"><stop offset="0" stop-color="#f2f2f2"/><stop offset="0.34" stop-color="#f8f8f8"/><stop offset="1" stop-color="#fff"/></radialGradient></defs><title>flowers</title><g class="cls-1"><g id="Layer_2" data-name="Layer 2"><g id="Layer_1-2" data-name="Layer 1"><path class="cls-2" d="M80,79.62s-27.75,1-40.5,12-21.5,32-17.75,50.25c7.5-1.75,39.5-7.25,52.5-23.25s12.5-27.25,11-34S80,79.62,80,79.62Z"/><path class="cls-2" d="M87.5,79.87S84,87.12,92.25,98.12s25.5,28.75,68.5,25c-1.5-10.25-9-20.75-17.25-28.25s-26.75-15.25-39-15.5S87.5,79.87,87.5,79.87Z"/><path class="cls-2" d="M0,54.37s5,14.5,29.5,21.5,50.75,2.5,50.75,2.5A47.37,47.37,0,0,0,56,54.12C38,46.37,6.25,53.37,0,54.37Z"/><path class="cls-2" d="M84.75,77.37s35,7,59-2.75S168.5,59.87,168.5,59.87s-22.75-5.75-35-4.5S100.75,63.62,84.75,77.37Z"/><path class="cls-3" d="M80.25,80.37s-27.75,1-40.5,12-21.5,32-17.75,50.25c7.5-1.75,39.5-7.25,52.5-23.25s12.5-27.25,11-34S80.25,80.37,80.25,80.37Z"/><path class="cls-3" d="M80.21,80.42s-27.71,1-40.44,12S18.3,124.35,22.05,142.57c7.49-1.75,39.44-7.24,52.42-23.21S87,92.15,85.45,85.41,80.21,80.42,80.21,80.42Z"/><path class="cls-3" d="M80.17,80.46s-27.67,1-40.38,12-21.43,31.9-17.69,50.09c7.47-1.74,39.38-7.23,52.34-23.18s12.46-27.16,11-33.89S80.17,80.46,80.17,80.46Z"/><path class="cls-3" d="M80.13,80.51s-27.62,1-40.32,11.95-21.4,31.85-17.66,50c7.46-1.74,39.31-7.21,52.25-23.14S86.85,92.21,85.35,85.49,80.13,80.51,80.13,80.51Z"/><path class="cls-3" d="M80.09,80.56s-27.58,1-40.25,11.93-21.37,31.8-17.64,49.94c7.45-1.74,39.25-7.21,52.17-23.11S86.8,92.24,85.3,85.53,80.09,80.56,80.09,80.56Z"/><path class="cls-3" d="M80.05,80.61s-27.54,1-40.19,11.9-21.34,31.76-17.62,49.87c7.45-1.74,39.2-7.2,52.1-23.07s12.4-27,10.92-33.74S80.05,80.61,80.05,80.61Z"/><path class="cls-3" d="M80,80.65s-27.49,1-40.12,11.89-21.3,31.71-17.59,49.79c7.43-1.73,39.14-7.18,52-23s12.38-27,10.9-33.68S80,80.65,80,80.65Z"/><path class="cls-3" d="M80,80.7s-27.45,1-40.06,11.87-21.27,31.66-17.56,49.71c7.42-1.73,39.08-7.17,51.94-23S86.64,92.33,85.16,85.65,80,80.7,80,80.7Z"/><path class="cls-3" d="M79.92,80.75s-27.41,1-40,11.85-21.23,31.61-17.53,49.63c7.41-1.72,39-7.16,51.85-23S86.59,92.36,85.11,85.69,79.92,80.75,79.92,80.75Z"/><path class="cls-3" d="M79.88,80.8s-27.36,1-39.94,11.83-21.2,31.56-17.5,49.56c7.4-1.73,39-7.15,51.77-22.93S86.54,92.39,85.06,85.73,79.88,80.8,79.88,80.8Z"/><path class="cls-3" d="M79.84,80.85S52.52,81.83,40,92.66,18.8,124.17,22.49,142.14c7.38-1.73,38.89-7.14,51.69-22.9S86.49,92.41,85,85.77,79.84,80.85,79.84,80.85Z"/><path class="cls-3" d="M79.8,80.89s-27.28,1-39.81,11.8-21.14,31.46-17.45,49.4c7.37-1.72,38.83-7.13,51.61-22.86S86.44,92.44,85,85.81,79.8,80.89,79.8,80.89Z"/><path class="cls-3" d="M79.76,80.94S52.52,81.92,40,92.72,18.9,124.13,22.59,142c7.36-1.72,38.77-7.11,51.53-22.82S86.39,92.47,84.91,85.85,79.76,80.94,79.76,80.94Z"/><path class="cls-3" d="M79.72,81S52.52,82,40,92.75,19,124.11,22.63,142c7.35-1.71,38.71-7.1,51.45-22.78S86.33,92.5,84.86,85.89,79.72,81,79.72,81Z"/><path class="cls-3" d="M40.06,92.79c12.22-10.55,38.61-11.66,39.3-11.74.27,0,3.41-1.41,4.91,3.37,0,.09.08.18.11.27s.06.15.08.23.12.39.19.6a20.69,20.69,0,0,1,.86,4.72,30,30,0,0,1-1.4,11.43c-1.58,5.07-4.65,10.92-10,17.53-12,14.78-40.56,20.44-50,22.48l-1.46.33c-1.77-8.7-.65-18,2.44-26.65A54.64,54.64,0,0,1,40.06,92.79Z"/><path class="cls-3" d="M40.09,92.83C52,82.52,77.62,81.26,79,81.11c.55-.06,3.62-1.33,5,3a1.92,1.92,0,0,1,.12.25c0,.07.08.13.09.2a3.49,3.49,0,0,0,.23.54,15.58,15.58,0,0,1,1,4.69,29.89,29.89,0,0,1-1.29,11.58c-1.58,5.19-4.69,11.12-10.1,17.77-12,14.75-40.48,20.44-50,22.5L22.6,142c-1.74-8.67-.63-18,2.49-26.64A54.73,54.73,0,0,1,40.09,92.83Z"/><path class="cls-3" d="M40.12,92.87C51.8,82.8,76.58,81.4,78.64,81.18c.83-.09,3.83-1.26,5.09,2.72,0,.08.12.15.14.23s.08.1.1.17a3.25,3.25,0,0,0,.25.49,12.19,12.19,0,0,1,1.23,4.65,29.94,29.94,0,0,1-1.18,11.74c-1.57,5.3-4.74,11.32-10.18,18-12,14.72-40.41,20.44-50,22.52l-1.47.32c-1.71-8.63-.62-18,2.53-26.62A54.7,54.7,0,0,1,40.12,92.87Z"/><path class="cls-3" d="M40.15,92.91c11.41-9.84,35.38-11.37,38.13-11.67,1.1-.12,4-1.18,5.18,2.4,0,.07.13.14.15.21s.1.08.12.14a1.72,1.72,0,0,0,.28.43A10.12,10.12,0,0,1,85.41,89a29.69,29.69,0,0,1-1.06,11.89c-1.57,5.42-4.79,11.52-10.25,18.25-11.95,14.7-40.34,20.44-50,22.54l-1.48.33c-1.68-8.6-.59-17.9,2.57-26.61A54.87,54.87,0,0,1,40.15,92.91Z"/><path class="cls-3" d="M40.18,93c11.13-9.6,34.3-11.28,37.74-11.65,1.38-.15,4.25-1.1,5.28,2.09,0,0,.14.11.16.18s.11.06.12.11.17.22.32.37c.76.8,1.3,2.42,1.58,4.59a29.81,29.81,0,0,1-.95,12c-1.56,5.54-4.83,11.72-10.33,18.49C62.17,133.85,33.84,139.62,24,141.73l-1.47.33c-1.66-8.57-.58-17.85,2.61-26.6A54.87,54.87,0,0,1,40.18,93Z"/><path class="cls-3" d="M40.21,93c10.86-9.38,33.23-11.19,37.35-11.63,1.66-.18,4.46-1,5.37,1.76,0,.05.16.1.18.15s.12,0,.13.09.18.18.34.32c.84.68,1.45,2.3,1.77,4.55a29.6,29.6,0,0,1-.84,12.2c-1.56,5.65-4.88,11.92-10.41,18.73C62.2,133.82,33.91,139.62,24,141.75l-1.48.32c-1.63-8.53-.55-17.79,2.65-26.58A54.84,54.84,0,0,1,40.21,93Z"/><path class="cls-3" d="M40.24,93C50.83,83.9,72.39,82,77.2,81.43c1.93-.21,4.66-1,5.46,1.44,0,0,.18.08.19.13s.13,0,.15.06.18.14.37.26c.9.58,1.58,2.19,1.94,4.52a29.32,29.32,0,0,1-.73,12.35c-1.54,5.77-4.91,12.12-10.48,19C62.22,133.79,34,139.61,24,141.76l-1.48.33a50.67,50.67,0,0,1,2.69-26.57A54.84,54.84,0,0,1,40.24,93Z"/><path class="cls-3" d="M40.27,93.08c10.32-8.91,31.07-11,36.57-11.59,2.21-.24,4.87-.87,5.55,1.12,0,0,.2.07.21.11s.14,0,.15,0,.2.1.41.2c1,.47,1.72,2.08,2.12,4.49a29.36,29.36,0,0,1-.62,12.5c-1.53,5.89-5,12.33-10.55,19.21-11.87,14.61-40,20.46-50.11,22.62l-1.49.33a50.74,50.74,0,0,1,2.74-26.56A54.83,54.83,0,0,1,40.27,93.08Z"/><path class="cls-3" d="M40.3,93.12c10-8.67,30-10.9,36.19-11.57,2.47-.26,5.07-.79,5.63.8,0,0,.21.06.22.09s.16,0,.17,0,.2.06.43.14c1,.38,1.87,2,2.31,4.46a29.23,29.23,0,0,1-.51,12.65c-1.53,6-5,12.53-10.63,19.46-11.84,14.57-40,20.45-50.12,22.64l-1.49.32a50.86,50.86,0,0,1,2.77-26.54A55.11,55.11,0,0,1,40.3,93.12Z"/><path class="cls-3" d="M40.33,93.16c9.77-8.43,28.92-10.8,35.8-11.54,2.75-.3,5.28-.72,5.72.48,0,0,.23,0,.24.06s.17,0,.17,0,.21,0,.47.09c1.11.27,2,1.86,2.48,4.42a29.08,29.08,0,0,1-.39,12.81c-1.52,6.11-5,12.73-10.71,19.69C62.29,133.69,34.22,139.6,24,141.8l-1.49.33A50.92,50.92,0,0,1,25.3,115.6,55.07,55.07,0,0,1,40.33,93.16Z"/><path class="cls-3" d="M40.35,93.2C49.86,85,68.2,82.49,75.77,81.68c3-.33,5.49-.64,5.81.16,0,0,.25,0,.25,0s.19-.07.19-.06.22,0,.5,0c1.18.18,2.13,1.75,2.66,4.39a29.07,29.07,0,0,1-.28,13c-1.52,6.23-5.09,12.93-10.78,19.93C62.31,133.66,34.29,139.6,24,141.82l-1.49.32a51.1,51.1,0,0,1,2.85-26.52A55.27,55.27,0,0,1,40.35,93.2Z"/><path class="cls-3" d="M40.38,93.24c9.24-8,26.78-10.61,35-11.5,3.3-.35,5.7-.55,5.9-.16a2.44,2.44,0,0,0,.27,0l.2-.08a4.27,4.27,0,0,1,.52,0c1.26.09,2.27,1.65,2.85,4.36A29.08,29.08,0,0,1,85,99c-1.5,6.35-5.13,13.13-10.85,20.18-11.79,14.5-39.75,20.46-50.17,22.7l-1.5.32a51.24,51.24,0,0,1,2.9-26.5A55.33,55.33,0,0,1,40.38,93.24Z"/><path class="cls-3" d="M22.44,142.17a51.24,51.24,0,0,1,2.94-26.5,55.26,55.26,0,0,1,15-22.39C53,82.46,80.76,81.33,81,81.32h.29l.2-.1a1.54,1.54,0,0,1,.56-.09c1.33,0,2.4,1.53,3,4.32a28.76,28.76,0,0,1-.06,13.27c-1.5,6.46-5.18,13.33-10.93,20.41-11.76,14.48-39.67,20.47-50.18,22.72Z"/><path class="cls-3" d="M87.5,80.37S84,87.62,92.25,98.62s25.5,28.75,68.5,25c-1.5-10.25-9-20.75-17.25-28.25s-26.75-15.25-39-15.5S87.5,80.37,87.5,80.37Z"/><path class="cls-3" d="M87.56,80.4s-3.5,7.24,4.74,18.22,25.46,28.71,68.39,25c-1.49-10.23-9-20.71-17.22-28.2S116.76,80.15,104.53,79.9,87.56,80.4,87.56,80.4Z"/><path class="cls-3" d="M87.61,80.43s-3.49,7.23,4.74,18.2,25.42,28.66,68.29,24.92c-1.5-10.22-9-20.68-17.2-28.16s-26.67-15.2-38.88-15.45S87.61,80.43,87.61,80.43Z"/><path class="cls-3" d="M87.67,80.47s-3.49,7.21,4.73,18.16,25.38,28.62,68.18,24.89c-1.49-10.2-9-20.66-17.17-28.12S116.78,80.22,104.59,80,87.67,80.47,87.67,80.47Z"/><path class="cls-3" d="M87.72,80.5s-3.48,7.21,4.72,18.14,25.35,28.57,68.08,24.85c-1.49-10.19-8.94-20.63-17.14-28.08S116.79,80.25,104.62,80,87.72,80.5,87.72,80.5Z"/><path class="cls-3" d="M87.78,80.53s-3.47,7.2,4.71,18.11,25.31,28.53,68,24.81c-1.49-10.17-8.94-20.59-17.12-28S116.8,80.29,104.65,80,87.78,80.53,87.78,80.53Z"/><path class="cls-3" d="M87.83,80.57s-3.46,7.18,4.71,18.08,25.27,28.48,67.87,24.77c-1.49-10.16-8.92-20.56-17.09-28s-26.51-15.11-38.64-15.36S87.83,80.57,87.83,80.57Z"/><path class="cls-3" d="M87.89,80.6s-3.46,7.17,4.7,18.05,25.22,28.44,67.76,24.74c-1.48-10.14-8.9-20.53-17.06-27.95s-26.46-15.09-38.58-15.33S87.89,80.6,87.89,80.6Z"/><path class="cls-3" d="M88,80.63s-3.46,7.16,4.69,18,25.18,28.4,67.66,24.69c-1.49-10.12-8.89-20.49-17-27.9s-26.42-15.06-38.52-15.31S88,80.63,88,80.63Z"/><path class="cls-3" d="M88,80.67s-3.45,7.15,4.69,18,25.14,28.36,67.55,24.66c-1.48-10.11-8.88-20.46-17-27.86s-26.38-15-38.46-15.29S88,80.67,88,80.67Z"/><path class="cls-3" d="M88.06,80.7s-3.45,7.14,4.67,18,25.11,28.31,67.45,24.62c-1.48-10.1-8.86-20.44-17-27.82s-26.34-15-38.4-15.26S88.06,80.7,88.06,80.7Z"/><path class="cls-3" d="M88.11,80.73s-3.44,7.13,4.67,18,25.07,28.26,67.34,24.57c-1.47-10.08-8.84-20.4-17-27.77s-26.3-15-38.34-15.24S88.11,80.73,88.11,80.73Z"/><path class="cls-3" d="M88.17,80.77s-3.44,7.11,4.66,17.91,25,28.22,67.24,24.54c-1.48-10.06-8.84-20.37-16.93-27.73s-26.26-15-38.28-15.21S88.17,80.77,88.17,80.77Z"/><path class="cls-3" d="M88.23,80.8s-3.44,7.11,4.65,17.89,25,28.17,67.13,24.5c-1.47-10-8.82-20.34-16.9-27.69s-26.22-15-38.23-15.19S88.23,80.8,88.23,80.8Z"/><path class="cls-3" d="M88.2,80.83a89.53,89.53,0,0,1,11.41-.53c1.57,0,3.31,0,5.23,0,6,.12,13.51,2.07,20.59,4.93s13.65,6.61,17.7,10.29c8.15,7.41,15.42,17.67,16.91,27.62q-5.26.45-10,.48h0c-17.28.15-29.76-3.57-38.87-8.7A58.07,58.07,0,0,1,92.87,98.63C84.91,88,88.15,81,88.2,80.83Z"/><path class="cls-3" d="M88.17,80.87a89.37,89.37,0,0,1,11.42-.53c1.57,0,3.3,0,5.2,0,5.95.12,13.5,2.06,20.63,4.94s13.69,6.63,17.73,10.3c8.22,7.49,15.41,17.72,16.92,27.56-3.51.3-6.85.45-10,.48h0c-17.12.13-29.66-3.53-38.89-8.73A58.14,58.14,0,0,1,92.87,98.58C85,88.11,88.08,81.16,88.17,80.87Z"/><path class="cls-3" d="M88.14,80.9a96.12,96.12,0,0,1,11.43-.52c1.57,0,3.29,0,5.18.05,5.93.12,13.48,2,20.66,4.95S139.13,92,143.17,95.7c8.3,7.55,15.4,17.75,16.93,27.49q-5.25.44-10,.47h0c-17,.12-29.56-3.49-38.91-8.76A58.3,58.3,0,0,1,92.86,98.52C85.13,88.22,88,81.34,88.14,80.9Z"/><path class="cls-3" d="M88.11,80.94a95.91,95.91,0,0,1,11.45-.52c1.56,0,3.28,0,5.14,0,5.91.12,13.48,2,20.7,5s13.75,6.67,17.79,10.34c8.37,7.61,15.39,17.78,16.94,27.42q-5.25.44-10,.46h0c-16.81.11-29.46-3.44-38.93-8.79a58.51,58.51,0,0,1-18.3-16.39C85.24,88.32,87.93,81.52,88.11,80.94Z"/><path class="cls-3" d="M88.08,81a99.91,99.91,0,0,1,11.46-.51c1.56,0,3.27,0,5.11.05,5.89.12,13.47,2,20.75,5s13.78,6.68,17.81,10.35c8.44,7.67,15.38,17.82,16.95,27.35q-5.25.44-10,.46h0c-16.66.1-29.37-3.4-39-8.82a58.45,58.45,0,0,1-18.3-16.41C85.35,88.43,87.85,81.71,88.08,81Z"/><path class="cls-3" d="M88.05,81a99.32,99.32,0,0,1,11.47-.51c1.56,0,3.26,0,5.09,0,5.86.12,13.45,2,20.78,5s13.81,6.7,17.84,10.36c8.51,7.74,15.37,17.86,17,27.29-3.49.28-6.85.43-10.06.45h0c-16.5.09-29.26-3.36-39-8.85A58.61,58.61,0,0,1,92.84,98.36C85.47,88.53,87.78,81.89,88.05,81Z"/><path class="cls-3" d="M88,81a103.06,103.06,0,0,1,11.48-.5c1.56,0,3.26,0,5.06,0,5.84.12,13.45,2,20.82,5S139.22,92.31,143.25,96c8.59,7.81,15.36,17.89,17,27.22-3.49.28-6.85.43-10.06.44h0c-16.34.08-29.16-3.31-39-8.88A58.71,58.71,0,0,1,92.83,98.31C85.58,88.63,87.71,82.07,88,81Z"/><path class="cls-3" d="M88,81.07a106.73,106.73,0,0,1,11.49-.49c1.56,0,3.25,0,5,.06,5.83.11,13.44,2,20.86,5s13.88,6.74,17.9,10.4c8.66,7.87,15.35,17.93,17,27.14-3.49.29-6.86.43-10.07.44h0c-16.19.07-29.06-3.26-39-8.91A58.76,58.76,0,0,1,92.83,98.25C85.69,88.74,87.63,82.25,88,81.07Z"/><path class="cls-3" d="M88,81.11a105.73,105.73,0,0,1,11.51-.49c1.56,0,3.23,0,5,.06,5.8.11,13.42,2,20.89,5s13.91,6.76,17.93,10.41c8.73,7.94,15.33,18,17,27.08-3.48.28-6.86.43-10.08.44h0c-16,0-29-3.23-39-8.94A58.92,58.92,0,0,1,92.82,98.2C85.8,88.84,87.56,82.43,88,81.11Z"/><path class="cls-3" d="M87.93,81.14a107.53,107.53,0,0,1,11.52-.47c1.56,0,3.22,0,5,0,5.78.11,13.42,2,20.93,5s14,6.78,18,10.43c8.8,8,15.32,18,17,27-3.47.28-6.85.42-10.07.43h0c-15.87,0-28.86-3.18-39-9A59.13,59.13,0,0,1,92.81,98.15C85.91,89,87.48,82.61,87.93,81.14Z"/><path class="cls-3" d="M87.9,81.18a109.17,109.17,0,0,1,11.53-.47c1.56,0,3.22,0,4.95.05,5.75.11,13.4,2,21,5,7.4,3,14,6.8,18,10.45,8.87,8.06,15.31,18,17,26.94-3.47.28-6.85.42-10.08.42h0c-15.72,0-28.76-3.13-39.08-9A58.94,58.94,0,0,1,92.81,98.09C86,89.05,87.41,82.79,87.9,81.18Z"/><path class="cls-3" d="M87.87,81.21a112.36,112.36,0,0,1,11.54-.46c1.56,0,3.21,0,4.92,0,5.74.11,13.39,2,21,5,7.43,3,14,6.82,18,10.47,9,8.13,15.3,18.07,17,26.87-3.46.28-6.85.41-10.09.42h0c-15.55,0-28.66-3.1-39.09-9A59.22,59.22,0,0,1,92.8,98C86.14,89.15,87.33,83,87.87,81.21Z"/><path class="cls-3" d="M150.29,123.59c-15.39,0-28.56-3-39.11-9.06A59.56,59.56,0,0,1,92.79,98c-6.54-8.73-5.53-14.83-5-16.74a110.76,110.76,0,0,1,11.56-.46c1.55,0,3.19,0,4.88,0,5.72.11,13.39,2,21,5.06,7.46,3,14,6.83,18,10.47,9,8.2,15.29,18.12,17,26.81-3.46.27-6.85.41-10.09.41Z"/><path class="cls-3" d="M0,54.87s5,14.5,29.5,21.5,50.75,2.5,50.75,2.5A47.37,47.37,0,0,0,56,54.62C38,46.87,6.25,53.87,0,54.87Z"/><path class="cls-3" d="M.06,54.88s5,14.48,29.46,21.47,50.67,2.5,50.67,2.5A47.26,47.26,0,0,0,56,54.64C38,46.9,6.3,53.89.06,54.88Z"/><path class="cls-3" d="M.12,54.9s5,14.46,29.41,21.44,50.6,2.49,50.6,2.49A47.23,47.23,0,0,0,56,54.65C38,46.93,6.35,53.9.12,54.9Z"/><path class="cls-3" d="M.19,54.92s5,14.43,29.36,21.4,50.51,2.49,50.51,2.49A47.13,47.13,0,0,0,55.93,54.67C38,47,6.41,53.92.19,54.92Z"/><path class="cls-3" d="M.25,54.93s5,14.42,29.32,21.37S80,78.79,80,78.79a47.06,47.06,0,0,0-24.1-24.1C38,47,6.46,53.94.25,54.93Z"/><path class="cls-3" d="M.31,55s5,14.39,29.27,21.34,50.36,2.48,50.36,2.48A47,47,0,0,0,55.88,54.7C38,47,6.51,54,.31,55Z"/><path class="cls-3" d="M.37,55s5,14.36,29.23,21.3,50.28,2.48,50.28,2.48a46.92,46.92,0,0,0-24-24C38,47,6.56,54,.37,55Z"/><path class="cls-3" d="M.43,55s5,14.35,29.18,21.27,50.21,2.48,50.21,2.48a46.82,46.82,0,0,0-24-24C38,47.07,6.61,54,.43,55Z"/><path class="cls-3" d="M.49,55S5.43,69.32,29.63,76.24s50.13,2.47,50.13,2.47a46.83,46.83,0,0,0-24-24C38,47.1,6.67,54,.49,55Z"/><path class="cls-3" d="M.56,55s4.93,14.3,29.09,21.2,50,2.47,50,2.47A46.69,46.69,0,0,0,55.78,54.77C38,47.13,6.72,54,.56,55Z"/><path class="cls-3" d="M.62,55s4.92,14.28,29,21.17,50,2.46,50,2.46A46.62,46.62,0,0,0,55.76,54.79C38,47.16,6.77,54.05.62,55Z"/><path class="cls-3" d="M.68,55.05s4.91,14.26,29,21.14,49.89,2.45,49.89,2.45A46.55,46.55,0,0,0,55.73,54.8C38,47.19,6.82,54.07.68,55.05Z"/><path class="cls-3" d="M.74,55.07s4.91,14.23,29,21.1,49.81,2.45,49.81,2.45a46.53,46.53,0,0,0-23.8-23.8C38,47.21,6.88,54.09.74,55.07Z"/><path class="cls-3" d="M.8,55.08S5.7,69.29,29.71,76.15,79.45,78.6,79.45,78.6A46.42,46.42,0,0,0,55.68,54.84C38,47.24,6.93,54.1.8,55.08Z"/><path class="cls-3" d="M.91,55.16C5,54.45,19,51.52,33.22,51.41c8.15-.06,16.22.82,22.52,3.54A46.64,46.64,0,0,1,79.49,78.63,128.19,128.19,0,0,1,61,80a113.15,113.15,0,0,1-31.24-3.85C9.46,70.36,2.79,59.34,1.2,56A3.25,3.25,0,0,1,.91,55.16Z"/><path class="cls-3" d="M1,55.24c4.26-.74,18.2-3.63,32.27-3.73,8.24-.06,16.26.86,22.5,3.54A46.94,46.94,0,0,1,79.54,78.66,130.77,130.77,0,0,1,61,80a113.07,113.07,0,0,1-31.26-3.86C9.53,70.38,2.83,59.4,1.2,56.06,1,55.54,1,55.25,1,55.24Z"/><path class="cls-3" d="M1.14,55.32c4.44-.78,18.29-3.62,32.24-3.71,8.33,0,16.3.89,22.48,3.55A47.07,47.07,0,0,1,79.58,78.69,133.64,133.64,0,0,1,61.05,80a113.54,113.54,0,0,1-31.26-3.88C9.6,70.39,2.86,59.46,1.2,56.08,1.06,55.61,1.05,55.33,1.14,55.32Z"/><path class="cls-3" d="M1.25,55.4c4.61-.82,18.37-3.6,32.22-3.69,8.41,0,16.33.92,22.45,3.56C72.64,62.47,79,77.42,79.63,78.72a135.79,135.79,0,0,1-18.54,1.33,113.26,113.26,0,0,1-31.27-3.89C9.67,70.41,2.89,59.52,1.2,56.1,1.11,55.67,1.14,55.42,1.25,55.4Z"/><path class="cls-3" d="M1.36,55.47c4.79-.84,18.45-3.58,32.19-3.65,8.5,0,16.37,1,22.43,3.56,16.49,7.09,22.92,21.74,23.7,23.37a137.74,137.74,0,0,1-18.56,1.31,113.79,113.79,0,0,1-31.28-3.89C9.74,70.42,2.93,59.58,1.21,56.12,1.16,55.73,1.22,55.5,1.36,55.47Z"/><path class="cls-3" d="M1.48,55.55c5-.88,18.53-3.57,32.15-3.63,8.59,0,16.41,1,22.41,3.56,16.26,7,22.75,21.34,23.68,23.29a137.2,137.2,0,0,1-18.57,1.31,114.28,114.28,0,0,1-31.28-3.91C9.8,70.44,3,59.64,1.21,56.14,1.2,55.79,1.3,55.58,1.48,55.55Z"/><path class="cls-3" d="M1.59,55.63C6.73,54.71,20.2,52.07,33.71,52c8.68,0,16.46,1,22.38,3.57,16,6.9,22.59,20.94,23.68,23.21a138.64,138.64,0,0,1-18.58,1.29,114.05,114.05,0,0,1-31.3-3.92C9.87,70.45,3,59.7,1.21,56.16,1.25,55.86,1.39,55.67,1.59,55.63Z"/><path class="cls-3" d="M1.7,55.71c5.32-1,18.69-3.54,32.09-3.59,8.77,0,16.5,1.05,22.36,3.58C72,62.5,78.56,76.23,79.81,78.83a140.6,140.6,0,0,1-18.59,1.28,114.82,114.82,0,0,1-31.3-3.93C9.94,70.47,3,59.76,1.21,56.18A.65.65,0,0,1,1.7,55.71Z"/><path class="cls-3" d="M1.81,55.79c5.5-1,18.78-3.53,32.06-3.57,8.86,0,16.54,1.08,22.34,3.58,15.57,6.71,22.24,20.14,23.65,23.06a141.4,141.4,0,0,1-18.6,1.26A114.38,114.38,0,0,1,30,76.18C10,70.48,3.06,59.82,1.21,56.21A.84.84,0,0,1,1.81,55.79Z"/><path class="cls-3" d="M1.92,55.87c5.67-1,18.86-3.52,32-3.55,8.94,0,16.57,1.12,22.31,3.59,15.34,6.61,22.07,19.73,23.63,23a142,142,0,0,1-18.61,1.24A114.12,114.12,0,0,1,30,76.18C10.08,70.5,3.09,59.89,1.21,56.23A1.24,1.24,0,0,1,1.92,55.87Z"/><path class="cls-3" d="M2,55.94c5.84-1.06,18.93-3.5,32-3.52,9,0,16.61,1.15,22.29,3.6,15.11,6.5,21.9,19.32,23.62,22.9a141.77,141.77,0,0,1-18.62,1.23,114.46,114.46,0,0,1-31.33-4C10.15,70.51,3.13,60,1.21,56.25A2.47,2.47,0,0,1,2,55.94Z"/><path class="cls-3" d="M2.15,56c6-1.09,19-3.48,32-3.49,9.12,0,16.65,1.18,22.27,3.6C71.27,62.53,78.12,75.05,80,78.94a139.2,139.2,0,0,1-18.63,1.22,114.5,114.5,0,0,1-31.34-4C10.21,70.53,3.16,60,1.21,56.27A6.71,6.71,0,0,1,2.15,56Z"/><path class="cls-3" d="M61.4,80.18a114.79,114.79,0,0,1-31.35-4C10.28,70.54,3.19,60.07,1.21,56.29l1-.19c6.2-1.13,19.1-3.47,31.94-3.47,9.21,0,16.69,1.21,22.25,3.6A48,48,0,0,1,80,79,140.5,140.5,0,0,1,61.4,80.18Z"/><path class="cls-3" d="M84.75,77.87s35,7,59-2.75S168.5,60.37,168.5,60.37s-22.75-5.75-35-4.5S100.75,64.12,84.75,77.87Z"/><path class="cls-3" d="M84.81,77.85s35,7,58.91-2.74,24.72-14.73,24.72-14.73-22.72-5.74-34.95-4.49S100.79,64.12,84.81,77.85Z"/><path class="cls-3" d="M84.88,77.84s34.89,7,58.82-2.74,24.67-14.71,24.67-14.71-22.68-5.73-34.89-4.48S100.83,64.13,84.88,77.84Z"/><path class="cls-3" d="M84.94,77.82s34.84,7,58.73-2.73S168.31,60.4,168.31,60.4s-22.65-5.72-34.84-4.48S100.87,64.14,84.94,77.82Z"/><path class="cls-3" d="M85,77.81s34.78,7,58.63-2.74,24.6-14.65,24.6-14.65-22.61-5.72-34.78-4.48S100.91,64.14,85,77.81Z"/><path class="cls-3" d="M85.07,77.79s34.73,6.95,58.55-2.73,24.56-14.63,24.56-14.63S145.6,54.72,133.45,56,101,64.15,85.07,77.79Z"/><path class="cls-3" d="M85.14,77.78s34.67,6.93,58.45-2.73,24.52-14.61,24.52-14.61-22.54-5.7-34.67-4.46S101,64.15,85.14,77.78Z"/><path class="cls-3" d="M85.2,77.76s34.62,6.93,58.37-2.72,24.48-14.59,24.48-14.59S145.54,54.76,133.43,56,101,64.16,85.2,77.76Z"/><path class="cls-3" d="M85.27,77.75s34.56,6.91,58.27-2.72S168,60.46,168,60.46,145.51,54.78,133.42,56,101.07,64.17,85.27,77.75Z"/><path class="cls-3" d="M85.33,77.73s34.52,6.9,58.18-2.71,24.41-14.55,24.41-14.55S145.48,54.8,133.4,56,101.11,64.17,85.33,77.73Z"/><path class="cls-3" d="M85.39,77.72s34.47,6.89,58.1-2.71,24.37-14.52,24.37-14.52-22.4-5.67-34.47-4.44S101.15,64.18,85.39,77.72Z"/><path class="cls-3" d="M85.46,77.7s34.41,6.88,58-2.7,24.33-14.5,24.33-14.5-22.36-5.66-34.41-4.43S101.19,64.18,85.46,77.7Z"/><path class="cls-3" d="M85.52,77.69s34.36,6.87,57.91-2.7,24.3-14.48,24.3-14.48-22.33-5.64-34.36-4.42S101.23,64.19,85.52,77.69Z"/><path class="cls-3" d="M85.59,77.67s34.3,6.86,57.82-2.69,24.25-14.46,24.25-14.46-22.29-5.63-34.3-4.41S101.27,64.2,85.59,77.67Z"/><path class="cls-3" d="M133.4,56.2c1.2-.12,2.5-.17,3.88-.17,12.21,0,30,4.47,30.38,4.56-.14.15-1.24,5-24.23,14.36-10,4.06-22,5.19-32.73,5.08h0a154.23,154.23,0,0,1-25-2.34,95.56,95.56,0,0,1,24.16-14.86A84.34,84.34,0,0,1,133.4,56.2Z"/><path class="cls-3" d="M133.43,56.29c1.2-.12,2.5-.17,3.88-.17,12.06,0,29.58,4.37,30.35,4.55-.28.3-1.75,5.13-24.2,14.25-9.88,4-21.81,5.2-32.71,5.1h0a155.53,155.53,0,0,1-25-2.32,95.93,95.93,0,0,1,24.15-14.79A84.32,84.32,0,0,1,133.43,56.29Z"/><path class="cls-3" d="M133.47,56.38c1.19-.12,2.49-.17,3.88-.17,11.91,0,29.16,4.26,30.31,4.53-.42.45-2.26,5.25-24.17,14.16-9.77,4-21.6,5.19-32.68,5.11h0a159.07,159.07,0,0,1-25-2.29A96.46,96.46,0,0,1,109.94,63,84.55,84.55,0,0,1,133.47,56.38Z"/><path class="cls-3" d="M133.5,56.48a36.12,36.12,0,0,1,3.88-.18c11.76,0,28.74,4.15,30.27,4.51-.55.61-2.75,5.37-24.14,14.06-9.64,3.92-21.38,5.2-32.64,5.12h0a159.12,159.12,0,0,1-25-2.26A96.91,96.91,0,0,1,110,63.05,84.85,84.85,0,0,1,133.5,56.48Z"/><path class="cls-3" d="M133.54,56.57a38.56,38.56,0,0,1,3.87-.18c11.61,0,28.32,4,30.24,4.5-.68.75-3.26,5.48-24.11,14C134,78.71,122.37,80.05,110.92,80h0a161.59,161.59,0,0,1-25-2.23,97.54,97.54,0,0,1,24.13-14.63A85.09,85.09,0,0,1,133.54,56.57Z"/><path class="cls-3" d="M133.57,56.66a38.56,38.56,0,0,1,3.87-.18c11.46,0,27.91,3.94,30.21,4.48-.82.9-3.77,5.6-24.08,13.86-9.4,3.82-21,5.21-32.59,5.15h0a163.34,163.34,0,0,1-25-2.21,97.84,97.84,0,0,1,24.12-14.57A85.37,85.37,0,0,1,133.57,56.66Z"/><path class="cls-3" d="M133.61,56.75a38.27,38.27,0,0,1,3.87-.18c11.31,0,27.48,3.83,30.17,4.46-1,1.06-4.28,5.73-24.06,13.76C134.31,78.56,122.85,80,111,80h0a164.42,164.42,0,0,1-25-2.17,98,98,0,0,1,24.11-14.51A85.32,85.32,0,0,1,133.61,56.75Z"/><path class="cls-3" d="M133.64,56.84a38.27,38.27,0,0,1,3.87-.18c11.16,0,27.07,3.73,30.14,4.45-1.1,1.2-4.78,5.84-24,13.65-9.16,3.73-20.53,5.22-32.53,5.18h0a164.13,164.13,0,0,1-25-2.15,98.44,98.44,0,0,1,24.11-14.45A85.81,85.81,0,0,1,133.64,56.84Z"/><path class="cls-3" d="M133.68,56.93a35.39,35.39,0,0,1,3.86-.17c11,0,26.65,3.61,30.1,4.42-1.23,1.36-5.28,6-24,13.56-9,3.67-20.3,5.22-32.49,5.18h0a164.66,164.66,0,0,1-24.93-2.11,98.84,98.84,0,0,1,24.1-14.4A85.71,85.71,0,0,1,133.68,56.93Z"/><path class="cls-3" d="M133.71,57a38.16,38.16,0,0,1,3.87-.17c10.85,0,26.23,3.51,30.06,4.4-1.37,1.51-5.79,6.08-24,13.46-8.92,3.62-20.09,5.23-32.46,5.2h0a164,164,0,0,1-24.92-2.09,99.21,99.21,0,0,1,24.09-14.34A86.27,86.27,0,0,1,133.71,57Z"/><path class="cls-3" d="M133.75,57.11c1.15-.11,2.45-.17,3.86-.17,10.7,0,25.81,3.4,30,4.39-1.51,1.65-6.3,6.19-23.94,13.36-8.8,3.57-19.88,5.23-32.44,5.21h0a166.12,166.12,0,0,1-24.91-2.06,99.83,99.83,0,0,1,24.08-14.29A86.54,86.54,0,0,1,133.75,57.11Z"/><path class="cls-3" d="M133.78,57.2c1.15-.11,2.45-.17,3.86-.17,10.56,0,25.39,3.29,30,4.37-1.65,1.81-6.81,6.31-23.92,13.26-8.67,3.52-19.66,5.23-32.4,5.22h0a164,164,0,0,1-24.89-2,100.22,100.22,0,0,1,24.07-14.22A86.9,86.9,0,0,1,133.78,57.2Z"/><path class="cls-3" d="M111.37,79.87a164.42,164.42,0,0,1-24.89-2A100.82,100.82,0,0,1,110.55,63.7a86.38,86.38,0,0,1,23.27-6.4,37.3,37.3,0,0,1,3.85-.18c10.41,0,25,3.19,30,4.35-1.78,2-7.3,6.43-23.88,13.16-8.56,3.48-19.45,5.24-32.37,5.24Z"/><g class="cls-4"><g class="cls-5"><path class="cls-2" d="M85.75,74.87c-5.46,0-15.71-2.9-20-16s2.62-23.41,9-27,31.6-1.91,35.5,12C114,57.26,94.91,74.83,85.75,74.87Z"/></g><g class="cls-6"><path class="cls-7" d="M85.94,74.79c-5.52.13-15.65-2.75-20-15.72s2.4-23.2,8.81-26.86S106.08,30.29,110,44C113.78,57.29,95,74.59,85.94,74.79Z"/></g><g class="cls-8"><path class="cls-9" d="M86.14,74.72C80.56,75,70.53,72.1,66.2,59.27s2.2-23,8.63-26.72c6.25-3.63,31-1.94,34.92,11.66C113.56,57.31,95.08,74.35,86.14,74.72Z"/></g><g class="cls-10"><path class="cls-11" d="M86.33,74.65c-5.64.34-15.56-2.49-19.9-15.17s2-22.78,8.43-26.59c6.19-3.65,30.66-1.95,34.64,11.49C113.33,57.34,95.15,74.11,86.33,74.65Z"/></g><g class="cls-12"><path class="cls-13" d="M86.53,74.57C80.82,75,71,72.23,66.65,59.68s1.77-22.56,8.25-26.45c6.13-3.67,30.35-2,34.35,11.32C113.11,57.37,95.23,73.88,86.53,74.57Z"/></g><g class="cls-14"><path class="cls-15" d="M86.72,74.5c-5.77.56-15.46-2.21-19.84-14.62s1.56-22.35,8.06-26.31c6.06-3.69,30-2,34.06,11.16C112.89,57.39,95.31,73.66,86.72,74.5Z"/></g><g class="cls-16"><path class="cls-17" d="M86.92,74.43c-5.84.67-15.42-2.08-19.81-14.35S68.45,38,75,33.91c6-3.71,29.71-2,33.77,11C112.67,57.42,95.38,73.45,86.92,74.43Z"/></g><g class="cls-18"><path class="cls-19" d="M87.11,74.35c-5.91.79-15.36-1.94-19.78-14.07s1.13-21.91,7.68-26c5.95-3.72,29.41-2,33.48,10.82C112.45,57.44,95.45,73.24,87.11,74.35Z"/></g><g class="cls-20"><path class="cls-21" d="M87.3,74.28c-6,.9-15.31-1.8-19.74-13.79s.91-21.71,7.49-25.89c5.88-3.75,29.09-2,33.19,10.64C112.22,57.47,95.52,73,87.3,74.28Z"/></g><g class="cls-22"><path class="cls-23" d="M87.5,74.2c-6.06,1-15.27-1.66-19.72-13.51s.71-21.49,7.31-25.75c5.82-3.77,28.78-2,32.9,10.47C112,57.5,95.59,72.83,87.5,74.2Z"/></g><g class="cls-24"><path class="cls-25" d="M87.69,74.13C81.56,75.28,72.48,72.6,68,60.89s.49-21.27,7.12-25.61c5.76-3.78,28.46-2.05,32.61,10.3C111.78,57.52,95.66,72.64,87.69,74.13Z"/></g><g class="cls-26"><path class="cls-27" d="M87.89,74.06c-6.21,1.26-15.17-1.4-19.65-13S68.52,40,75.17,35.62c5.7-3.79,28.14-2.06,32.32,10.13C111.56,57.55,95.73,72.45,87.89,74.06Z"/></g><g class="cls-28"><path class="cls-29" d="M88.08,74C81.8,75.38,73,72.73,68.46,61.3S68.53,40.46,75.2,36c5.64-3.81,27.84-2.07,32,10C111.33,57.57,95.8,72.27,88.08,74Z"/></g><g class="cls-30"><path class="cls-31" d="M88.28,73.91c-6.37,1.52-15.07-1.12-19.59-12.41s-.15-20.62,6.55-25.2c5.58-3.82,27.52-2.08,31.75,9.8C111.11,57.6,95.87,72.1,88.28,73.91Z"/></g><g class="cls-32"><path class="cls-33" d="M88.47,73.83c-6.44,1.65-15-1-19.56-12.13s-.35-20.4,6.37-25.06c5.52-3.83,27.2-2.1,31.46,9.63C110.89,57.63,95.94,71.92,88.47,73.83Z"/></g><g class="cls-34"><path class="cls-35" d="M88.67,73.76c-6.53,1.78-15-.84-19.53-11.86S68.57,41.73,75.32,37c5.46-3.84,26.89-2.11,31.17,9.46C110.67,57.65,96,71.76,88.67,73.76Z"/></g><g class="cls-36"><path class="cls-37" d="M88.86,73.69C82.26,75.6,73.94,73,69.37,62.11s-.78-20,6-24.79c5.4-3.85,26.57-2.12,30.88,9.29C110.45,57.68,96.07,71.59,88.86,73.69Z"/></g><g class="cls-38"><path class="cls-39" d="M89.05,73.61c-6.68,2.06-14.87-.57-19.46-11.3s-1-19.74,5.8-24.65c5.35-3.86,26.26-2.13,30.6,9.12C110.22,57.7,96.14,71.43,89.05,73.61Z"/></g><g class="cls-40"><path class="cls-41" d="M89.25,73.54c-6.76,2.19-14.82-.44-19.43-11S68.62,43,75.43,38c5.29-3.87,25.95-2.15,30.3,9C110,57.73,96.22,71.28,89.25,73.54Z"/></g><g class="cls-42"><path class="cls-43" d="M89.44,73.47C82.6,75.8,74.67,73.17,70,62.71s-1.4-19.29,5.43-24.36c5.23-3.89,25.63-2.17,30,8.78C109.78,57.75,96.29,71.13,89.44,73.47Z"/></g><g class="cls-44"><path class="cls-45" d="M89.64,73.39c-6.92,2.48-14.73-.16-19.37-10.47s-1.62-19.07,5.24-24.23c5.17-3.9,25.31-2.18,29.72,8.61C109.56,57.78,96.36,71,89.64,73.39Z"/></g><g class="cls-46"><path class="cls-47" d="M89.83,73.32c-7,2.63-14.67,0-19.34-10.2S68.67,44.27,75.54,39c5.12-3.91,25-2.19,29.44,8.44C109.33,57.81,96.43,70.84,89.83,73.32Z"/></g><g class="cls-48"><path class="cls-49" d="M90,73.24C83,76,75.4,73.35,70.72,63.32s-2-18.62,4.86-24c5.06-3.91,24.69-2.21,29.15,8.27C109.11,57.83,96.5,70.7,90,73.24Z"/></g><g class="cls-50"><path class="cls-51" d="M90.22,73.17c-7.15,2.94-14.58.25-19.27-9.65s-2.24-18.4,4.67-23.81c5-3.92,24.37-2.22,28.86,8.1C108.89,57.86,96.58,70.56,90.22,73.17Z"/></g><g class="cls-52"><path class="cls-53" d="M90.41,73.1c-7.22,3.09-14.52.38-19.24-9.37s-2.45-18.18,4.49-23.68c5-3.93,24.06-2.23,28.57,7.93C108.67,57.88,96.66,70.42,90.41,73.1Z"/></g><g class="cls-54"><path class="cls-55" d="M90.61,73c-7.3,3.26-14.48.52-19.21-9.09s-2.66-18,4.3-23.54c4.89-3.93,23.74-2.24,28.28,7.76C108.45,57.91,96.73,70.29,90.61,73Z"/></g><g class="cls-56"><path class="cls-57" d="M90.8,73c-7.37,3.42-14.42.65-19.18-8.82s-2.86-17.72,4.11-23.4c4.84-3.94,23.43-2.26,28,7.6C108.22,57.94,96.81,70.16,90.8,73Z"/></g><g class="cls-58"><path class="cls-59" d="M91,72.87c-7.44,3.59-14.38.8-19.15-8.54s-3.07-17.49,3.92-23.26c4.79-3.94,23.12-2.27,27.71,7.43C108,58,96.89,70,91,72.87Z"/></g><g class="cls-60"><path class="cls-61" d="M91.19,72.8c-7.51,3.76-14.33.93-19.11-8.27S68.8,47.27,75.81,41.41c4.73-3.95,22.78-2.27,27.42,7.26C107.76,58,97,69.91,91.19,72.8Z"/></g><g class="cls-62"><path class="cls-63" d="M91.39,72.73c-7.58,3.93-14.28,1.06-19.09-8s-3.48-17,3.55-23c4.67-4,22.48-2.29,27.13,7.09C107.56,58,97.06,69.79,91.39,72.73Z"/></g><g class="cls-64"><path class="cls-65" d="M91.58,72.65c-7.64,4.11-14.23,1.2-19-7.71S68.84,48.13,75.88,42.1c4.63-4,22.18-2.32,26.84,6.91C107.33,58,97.14,69.66,91.58,72.65Z"/></g><g class="cls-66"><path class="cls-67" d="M91.77,72.58c-7.69,4.29-14.18,1.34-19-7.44s-3.88-16.58,3.17-22.7c4.57-4,21.84-2.32,26.55,6.74C107.1,58.07,97.23,69.54,91.77,72.58Z"/></g><g class="cls-68"><path class="cls-69" d="M92,72.51C84.21,77,77.84,74,73,65.34S68.89,49,76,42.78c4.52-4,21.54-2.34,26.26,6.57C106.89,58.09,97.31,69.42,92,72.51Z"/></g><g class="cls-70"><path class="cls-71" d="M92.16,72.43c-7.81,4.66-14.08,1.61-19-6.88S68.91,49.43,76,43.12c4.46-4,21.21-2.35,26,6.41C106.65,58.13,97.4,69.31,92.16,72.43Z"/></g><g class="cls-72"><path class="cls-73" d="M92.36,72.36c-7.87,4.85-14,1.75-18.93-6.61S68.94,49.86,76,43.46c4.41-4,20.91-2.37,25.68,6.24C106.45,58.14,97.49,69.19,92.36,72.36Z"/></g><g class="cls-74"><path class="cls-75" d="M92.55,72.28c-7.91,5-14,1.89-18.89-6.33S69,50.3,76.07,43.8c4.37-4,20.6-2.38,25.4,6.07S97.58,69.07,92.55,72.28Z"/></g><g class="cls-76"><path class="cls-77" d="M92.75,72.21c-8,5.24-13.94,2-18.87-6.06s-4.89-15.42,2.23-22c4.31-4,20.29-2.39,25.11,5.9S97.68,69,92.75,72.21Z"/></g><g class="cls-78"><path class="cls-79" d="M92.94,72.14c-8,5.44-13.89,2.15-18.83-5.78s-5.1-15.19,2-21.88c4.26-4,20-2.4,24.82,5.73S97.77,68.85,92.94,72.14Z"/></g><g class="cls-80"><path class="cls-81" d="M93.13,72.06c-8,5.65-13.83,2.3-18.79-5.5s-5.3-15,1.85-21.74c4.21-4,19.66-2.42,24.53,5.56S97.87,68.73,93.13,72.06Z"/></g><g class="cls-82"><path class="cls-83" d="M93.33,72c-8.07,5.86-13.79,2.43-18.77-5.23S69.07,52,76.23,45.16c4.15-4,19.34-2.43,24.24,5.39S98,68.62,93.33,72Z"/></g><g class="cls-84"><path class="cls-85" d="M93.52,71.92C85.43,78,79.79,74.48,74.79,67S69.1,52.48,76.26,45.5c4.11-4,19-2.44,24,5.23S98.07,68.51,93.52,71.92Z"/></g><g class="cls-86"><path class="cls-87" d="M93.72,71.84C85.6,78.13,80,74.54,75,67.17S69.13,52.91,76.3,45.85c4.06-4,18.72-2.46,23.66,5S98.17,68.39,93.72,71.84Z"/></g><g class="cls-88"><path class="cls-89" d="M93.91,71.77c-8.14,6.5-13.64,2.84-18.67-4.4s-6.08-14,1.1-21.18c4-4,18.4-2.48,23.37,4.88S98.28,68.28,93.91,71.77Z"/></g><g class="cls-90"><path class="cls-91" d="M94.11,71.69c-8.16,6.73-13.59,3-18.64-4.12s-6.28-13.78.91-21c4-4,18.08-2.49,23.08,4.71S98.38,68.17,94.11,71.69Z"/></g><g class="cls-92"><path class="cls-93" d="M94.3,71.62c-8.17,6.95-13.54,3.11-18.61-3.85s-6.47-13.54.72-20.9c3.92-4,17.78-2.5,22.8,4.54S98.49,68.06,94.3,71.62Z"/></g><g class="cls-94"><path class="cls-95" d="M94.5,71.55C86.32,78.72,81,74.8,75.92,68s-6.67-13.3.53-20.76c3.86-4,17.46-2.52,22.51,4.37S98.6,67.94,94.5,71.55Z"/></g><g class="cls-96"><path class="cls-97" d="M94.69,71.47c-8.18,7.4-13.44,3.39-18.55-3.29s-6.85-13.07.35-20.63c3.82-4,17.14-2.53,22.22,4.2S98.71,67.83,94.69,71.47Z"/></g><g class="cls-98"><path class="cls-99" d="M94.88,71.4c-8.17,7.63-13.39,3.52-18.51-3s-7.05-12.82.16-20.49c3.76-4,16.83-2.54,21.93,4S98.83,67.71,94.88,71.4Z"/></g><g class="cls-100"><path class="cls-101" d="M95.08,71.32C86.92,79.19,81.73,75,76.6,68.58s-7.24-12.58,0-20.35c3.72-4,16.51-2.55,21.64,3.87S98.94,67.6,95.08,71.32Z"/></g><path class="cls-102" d="M95.27,71.25c-8.14,8.1-13.29,3.8-18.45-2.47S69.4,56.44,76.6,48.57c3.68-4,16.2-2.57,21.36,3.7S99.06,67.48,95.27,71.25Z"/></g><path class="cls-103" d="M86,80.88c0,.49-1.31,10.46,7.32,14.2,6.67,2.9,14.87,4.32,33.05-3.93s24.5-20.24,24.5-20.24-10.17,3.74-16.49,4.21-22.65,2.8-26.81,3.58-11.56.15-14.33-.47S86.34,75.89,86,80.88Z"/><path class="cls-104" d="M86,80.38c0,.49-1.31,10.46,7.32,14.2,6.67,2.9,14.87,4.32,33.05-3.93s24.5-20.24,24.5-20.24-10.21,3.37-16.49,4.21c-6.54.87-18,2.37-25.17,2.87-6,.42-13.2.86-16,.24S86.34,75.39,86,80.38Z"/><path class="cls-105" d="M91.49,71.8A114.42,114.42,0,0,0,102,62.24c4.71-5,19.92-19.38,23.69-23.29s14-17.23,15.35-22.88c3.1,6.86,5.11,19.38,1.35,31.5s-12.52,20.86-24.1,25.71a60.89,60.89,0,0,1-24.5,4.58C91,77.86,87.05,76,91.49,71.8Z"/><path class="cls-106" d="M91,71.8a114.42,114.42,0,0,0,10.5-9.56c4.71-5,19.92-19.38,23.69-23.29s14-17.23,15.35-22.88c3.1,6.86,5.11,19.38,1.35,31.5s-12.52,20.86-24.1,25.71a60.89,60.89,0,0,1-24.5,4.58C90.45,77.86,86.55,76,91,71.8Z"/><path class="cls-107" d="M82.69,74.59a24.73,24.73,0,0,1-11.52-15c-3.12-10.93-5.08-24.4,3.32-38.46S88.35,2.54,93.62,0C99.09,4.88,107.68,11.72,110,24.6S109.24,53.69,99.48,64,83.67,74.78,82.69,74.59Z"/><path class="cls-108" d="M82.69,75.09a24.73,24.73,0,0,1-11.52-15c-3.12-10.93-5.08-24.4,3.32-38.46S88.35,3,93.62.5C99.09,5.38,107.68,12.22,110,25.1s-.79,29.09-10.55,39.44S83.67,75.28,82.69,75.09Z"/><path class="cls-109" d="M20.53,15.4s-6.09,2.57-6,15.72c.05,11.25,4.25,22.25,10.5,29S48.24,79.37,63.25,79.37a159.75,159.75,0,0,0,20-1.5s-6.5-4.75-13-14.5-12-19-20.5-24.5-17.36-11.49-22.36-16A40.5,40.5,0,0,1,20.53,15.4Z"/><path class="cls-110" d="M20.5,15.37s-5.75,4.5-5.5,15.75,4.25,22.25,10.5,29S48.74,79.37,63.75,79.37a159.75,159.75,0,0,0,20-1.5s-6.5-4.75-13-14.5-12-19-20.5-24.5-18.56-12.5-23.56-17S20.5,15.37,20.5,15.37Z"/><path class="cls-111" d="M79.75,67.76s-5,1.72-8,2.86-4.25,5.15.75,8.3a23.71,23.71,0,0,0,15.25,3.72c4.75-.57,5.75-3.43,6.5-6s-.25-7.15-4-8.3S79.75,67.76,79.75,67.76Z"/><path class="cls-112" d="M27.83,82.4c3.55,1.89,42.25,19.41,42.25,19.41a13.44,13.44,0,0,0,7.45,1.3c3.91-.59,9.23-3.43,8.41-17.51-.36-5.09-3.08-6.28-4.5-6.28a156.08,156.08,0,0,0-16.33.83c-7.34.83-27.34,1.9-31.84,0S26.41,74.59,27.83,82.4Z"/><g class="cls-4"><path class="cls-113" d="M90.38,68.63S101.11,60.74,110,58.54s24.33-2.9,24.61.28.85,14.81-4.45,29.47c-1.36,3.74-13.44,6-23.1,3.38C101.44,90.18,95.53,84.9,92,81.15S85.33,72.94,90.38,68.63Z"/><path class="cls-114" d="M90.6,69S101.09,61.22,110,59c8.64-2.15,23.43-2.82,23.8.23s.95,14.63-4.31,28.89c-1.33,3.62-13,5.74-22.36,3.29C101.63,90,95.87,85,92.26,81.26S85.61,73.29,90.6,69Z"/><path class="cls-115" d="M90.83,69.34s10.23-7.64,19.2-9.88c8.38-2.08,22.54-2.74,23,.18s1.06,14.45-4.16,28.31c-1.3,3.51-12.58,5.52-21.61,3.2-5.42-1.39-11-6.11-14.7-9.78C89.11,77.93,85.88,73.64,90.83,69.34Z"/><path class="cls-116" d="M91.05,69.7s10-7.52,19-9.77c8.13-2,21.65-2.67,22.17.13s1.12,14.25-4,27.72c-1.29,3.39-12.15,5.3-20.87,3.11-5.32-1.33-10.8-5.77-14.51-9.4C89.46,78.19,86.16,74,91.05,69.7Z"/><path class="cls-117" d="M91.28,70.06s9.74-7.4,18.79-9.67c7.88-2,20.77-2.59,21.35.08.64,2.87,1.22,14.06-3.86,27.14-1.28,3.27-11.73,5.08-20.13,3-5.23-1.28-10.56-5.44-14.33-9C89.81,78.45,86.44,74.34,91.28,70.06Z"/><path class="cls-118" d="M91.51,70.41s9.49-7.27,18.58-9.56c7.62-1.9,19.89-2.5,20.54,0,.72,2.8,1.31,13.87-3.72,26.56-1.25,3.16-11.3,4.86-19.39,2.93-5.13-1.22-10.32-5.1-14.13-8.66C90.16,78.7,86.71,74.7,91.51,70.41Z"/><path class="cls-119" d="M91.73,70.77s9.24-7.15,18.38-9.45c7.37-1.85,19-2.42,19.72,0,.82,2.75,1.41,13.69-3.57,26-1.23,3-10.87,4.65-18.64,2.84-5-1.17-10.08-4.77-14-8.29C90.52,79,87,75.05,91.73,70.77Z"/><path class="cls-120" d="M92,71.13s9-7,18.17-9.35c7.12-1.78,18.14-2.34,18.91-.07.92,2.69,1.5,13.49-3.43,25.39-1.21,2.93-10.44,4.44-17.9,2.75-4.94-1.12-9.83-4.43-13.76-7.92C90.88,79.21,87.27,75.4,92,71.13Z"/><path class="cls-121" d="M92.19,71.48s8.74-6.9,18-9.24c6.87-1.72,17.28-2.25,18.1-.12,1,2.64,1.59,13.31-3.28,24.81-1.19,2.81-10,4.22-17.17,2.66C103,88.53,98.22,85.49,94.23,82,91.24,79.46,87.54,75.75,92.19,71.48Z"/><path class="cls-122" d="M92.41,71.84s8.5-6.78,17.76-9.13c6.61-1.66,16.42-2.17,17.28-.18,1.13,2.59,1.69,13.12-3.13,24.23-1.17,2.69-9.59,4-16.42,2.57-4.75-1-9.33-3.77-13.39-7.18C91.6,79.71,87.82,76.1,92.41,71.84Z"/><path class="cls-123" d="M92.64,72.2s8.24-6.66,17.55-9c6.36-1.6,15.94-2.22,16.47-.23,1.69,2.27,1.78,12.94-3,23.65-1.15,2.58-9.17,3.81-15.68,2.48A31,31,0,0,1,94.8,82.26C92,80,88.09,76.45,92.64,72.2Z"/><path class="cls-124" d="M92.87,72.56s8-6.56,17.34-8.93c6.1-1.55,15.1-2.15,15.66-.27,1.83,2.18,1.88,12.74-2.85,23.06-1.12,2.46-8.74,3.6-14.93,2.39a30.26,30.26,0,0,1-13-6.43C92.33,80.2,88.37,76.8,92.87,72.56Z"/><path class="cls-125" d="M93.09,72.91s7.74-6.43,17.14-8.81c5.85-1.49,14.26-2.09,14.84-.33,2,2.09,2,12.56-2.69,22.48-1.11,2.35-8.33,3.39-14.2,2.3a29.52,29.52,0,0,1-12.82-6.06C92.7,80.44,88.65,77.15,93.09,72.91Z"/><path class="cls-126" d="M93.32,73.27a48.13,48.13,0,0,1,16.92-8.71c5.61-1.43,13.43-2,14-.38,2.11,2,2.07,12.37-2.55,21.9-1.08,2.23-7.9,3.19-13.45,2.21A28.71,28.71,0,0,1,95.64,82.6C93.07,80.68,88.92,77.5,93.32,73.27Z"/><path class="cls-127" d="M93.55,73.63A46.64,46.64,0,0,1,110.26,65c5.36-1.36,12.59-1.94,13.22-.43,2.26,1.91,2.18,12.18-2.4,21.32C120,88,113.6,88.9,108.37,88a27.75,27.75,0,0,1-12.45-5.32C93.45,80.91,89.2,77.85,93.55,73.63Z"/><path class="cls-128" d="M93.77,74a45.15,45.15,0,0,1,16.51-8.5c5.1-1.31,11.75-1.88,12.41-.48,2.4,1.82,2.28,12-2.26,20.73-1,2-7.05,2.8-12,2a26.63,26.63,0,0,1-12.25-4.94C93.82,81.15,89.47,78.2,93.77,74Z"/><path class="cls-129" d="M94,74.34A43.66,43.66,0,0,1,110.3,66c4.85-1.24,10.91-1.81,11.59-.53,2.55,1.73,2.39,11.81-2.1,20.15-1,1.88-6.64,2.6-11.23,1.93a25.78,25.78,0,0,1-12.07-4.57C94.2,81.38,89.75,78.55,94,74.34Z"/><path class="cls-130" d="M94.23,74.7a42.22,42.22,0,0,1,16.09-8.29c4.6-1.18,10.07-1.74,10.78-.58,2.68,1.64,2.49,11.62-2,19.57-1,1.77-6.22,2.41-10.49,1.84A25,25,0,0,1,96.77,83C94.58,81.61,90,78.9,94.23,74.7Z"/><path class="cls-131" d="M94.45,75.06a40.81,40.81,0,0,1,15.89-8.18c4.34-1.12,9.24-1.68,10-.64,2.82,1.55,2.59,11.44-1.82,19-1,1.65-5.8,2.22-9.74,1.75s-7-.87-11.7-3.82C95,81.84,90.3,79.25,94.45,75.06Z"/><path class="cls-132" d="M94.68,75.41a39.48,39.48,0,0,1,15.68-8.07c4.09-1.06,8.4-1.61,9.15-.68,3,1.46,2.7,11.25-1.67,18.4-.94,1.54-5.38,2-9,1.66-3.83-.39-6.71-.57-11.51-3.45C95.34,82.07,90.58,79.6,94.68,75.41Z"/><path class="cls-133" d="M94.91,75.77a38,38,0,0,1,15.47-8c3.84-1,7.56-1.54,8.34-.73,3.1,1.37,2.81,11.07-1.53,17.82-.91,1.42-5,1.86-8.25,1.57-3.75-.32-6.43-.28-11.32-3.08C95.72,82.29,90.85,80,94.91,75.77Z"/><path class="cls-134" d="M95.13,76.13a37,37,0,0,1,15.27-7.86c3.59-.93,6.62-1.34,7.52-.79,3,1.8,2.93,10.9-1.37,17.24C115.66,86,112,86.4,109,86.2c-3.66-.24-6.15,0-11.13-2.71C96.1,82.51,91.13,80.3,95.13,76.13Z"/><path class="cls-135" d="M95.36,76.49s5.25-5.19,15.06-7.76c3.34-.87,5.81-1.29,6.71-.84,3.2,1.63,3.05,10.72-1.23,16.66-.86,1.2-4.12,1.51-6.78,1.39-3.56-.15-5.85.27-10.94-2.34C96.48,82.73,91.41,80.66,95.36,76.49Z"/><path class="cls-136" d="M95.59,76.84s5-5.06,14.85-7.65c3.08-.8,5-1.26,5.9-.88,3.41,1.42,3.17,10.54-1.09,16.07-.83,1.08-3.7,1.34-6,1.3-3.48-.06-5.56.52-10.76-2C96.87,83,91.68,81,95.59,76.84Z"/><path class="cls-137" d="M95.81,77.2s4.76-4.94,14.65-7.54c2.83-.75,4.19-1.23,5.08-.94,3.62,1.19,3.3,10.38-.94,15.49-.8,1-3.28,1.18-5.29,1.21-3.38,0-5.26.76-10.56-1.6C97.25,83.16,92,81.36,95.81,77.2Z"/><path class="cls-99" d="M96,77.56s4.51-4.82,14.44-7.44c2.58-.68,3.36-1.21,4.27-1,3.81.92,3.43,10.23-.79,14.91-.78.86-2.86,1-4.55,1.12-3.3.19-5,1-10.38-1.23C97.63,83.37,92.24,81.71,96,77.56Z"/></g><g class="cls-4"><path class="cls-113" d="M78.11,69.31S69.65,79.73,67.4,88.61s-1.37,25.91,1.8,26.2,24.86-2.51,34.27-6.24c3.69-1.47.67-8.73-1.86-18.4-1.47-5.62-8.36-16.47-12.09-20S82.44,64.29,78.11,69.31Z"/><path class="cls-114" d="M78.46,69.54s-8.31,10.18-10.57,19.1c-2.19,8.62-1.37,25,1.68,25.33s24.26-2.3,33.49-6c3.58-1.44.67-8.49-1.73-17.85-1.42-5.51-8-16-11.66-19.64S82.79,64.57,78.46,69.54Z"/><path class="cls-115" d="M78.82,69.77s-8.17,9.94-10.45,18.9c-2.12,8.37-1.35,24,1.57,24.45s23.67-2.07,32.72-5.8c3.46-1.43.66-8.25-1.62-17.29-1.36-5.43-7.56-15.59-11.21-19.27C86.4,67.32,83.14,64.85,78.82,69.77Z"/><path class="cls-116" d="M79.18,70s-8,9.7-10.32,18.7c-2.06,8.12-1.34,23,1.45,23.58s23.08-1.86,32-5.59c3.35-1.4.65-8-1.5-16.73C99.45,84.63,93.6,74.8,90,71.08,86.7,67.7,83.49,65.12,79.18,70Z"/><path class="cls-117" d="M79.53,70.23s-7.88,9.46-10.19,18.51c-2,7.86-1.31,22.1,1.35,22.69,2.86.65,22.48-1.63,31.17-5.36,3.23-1.38.64-7.77-1.38-16.18-1.26-5.23-6.76-14.72-10.35-18.49C87,68.09,83.84,65.4,79.53,70.23Z"/><path class="cls-118" d="M79.89,70.46s-7.73,9.23-10.06,18.31c-1.94,7.61-1.3,21.16,1.23,21.82,2.8.74,21.88-1.42,30.4-5.14,3.11-1.37.64-7.53-1.26-15.63C99,84.68,93.83,75.54,90.29,71.71,87.3,68.47,84.19,65.68,79.89,70.46Z"/><path class="cls-119" d="M80.25,70.68s-7.59,9-9.94,18.12C68.44,96.17,69,109,71.43,109.74c2.74.84,21.29-1.19,29.63-4.92,3-1.34.63-7.29-1.14-15.07-1.15-5-6-13.83-9.48-17.72C87.59,68.87,84.54,66,80.25,70.68Z"/><path class="cls-120" d="M80.6,70.91s-7.44,8.76-9.81,17.92C69,96,69.55,108.12,71.8,108.9c2.69.93,20.7-1,28.85-4.7,2.88-1.32.64-7.06-1-14.52-1.09-5-5.56-13.39-9-17.34C87.89,69.26,84.89,66.23,80.6,70.91Z"/><path class="cls-121" d="M81,71.14s-7.3,8.52-9.68,17.73c-1.75,6.86-1.23,18.36.9,19.18,2.63,1,20.1-.74,28.07-4.48,2.77-1.29.64-6.81-.9-14-1-4.85-5.17-12.94-8.6-17C88.18,69.65,85.24,66.51,81,71.14Z"/><path class="cls-122" d="M81.31,71.37s-7.15,8.28-9.55,17.53c-1.68,6.61-1.2,17.44.79,18.31,2.59,1.13,19.5-.52,27.3-4.26,2.65-1.27.64-6.58-.78-13.41C98.08,84.78,94.3,77,90.91,73,88.47,70.05,85.59,66.79,81.31,71.37Z"/><path class="cls-123" d="M81.67,71.6s-7,8-9.42,17.33c-1.63,6.36-1.32,16.89.67,17.43,2.27,1.71,18.91-.29,26.53-4,2.53-1.25.64-6.35-.66-12.86a44.79,44.79,0,0,0-7.73-16.18C88.76,70.45,85.94,67.07,81.67,71.6Z"/><path class="cls-124" d="M82,71.82S75.14,79.63,72.73,89c-1.57,6.11-1.31,16,.56,16.56,2.18,1.85,18.32-.06,25.76-3.82,2.42-1.22.64-6.11-.54-12.3a43.27,43.27,0,0,0-7.29-15.79C89.05,70.85,86.29,67.34,82,71.82Z"/><path class="cls-125" d="M82.38,72.05s-6.74,7.57-9.16,17c-1.52,5.85-1.31,15.09.45,15.67,2.08,2,17.72.17,25-3.59,2.31-1.2.66-5.88-.42-11.75a41.17,41.17,0,0,0-6.85-15.41C89.33,71.26,86.64,67.62,82.38,72.05Z"/><path class="cls-126" d="M82.74,72.28s-6.6,7.33-9,16.75c-1.45,5.6-1.29,14.19.34,14.8,2,2.13,17.13.4,24.2-3.38,2.19-1.17.66-5.64-.3-11.19a39.4,39.4,0,0,0-6.41-15C89.61,71.66,87,67.9,82.74,72.28Z"/><path class="cls-127" d="M83.1,72.51a43.93,43.93,0,0,0-8.91,16.55c-1.39,5.35-1.29,13.29.22,13.92,1.9,2.27,16.54.64,23.43-3.15,2.08-1.14.67-5.41-.18-10.64a37.43,37.43,0,0,0-6-14.63C89.89,72.07,87.34,68.18,83.1,72.51Z"/><path class="cls-128" d="M83.45,72.74A42.74,42.74,0,0,0,74.67,89.1c-1.33,5.09-1.28,12.38.11,13,1.82,2.41,16,.87,22.66-2.94,2-1.11.69-5.17-.06-10.08a35.59,35.59,0,0,0-5.55-14.25C90.17,72.48,87.69,68.46,83.45,72.74Z"/><path class="cls-129" d="M83.81,73a41.75,41.75,0,0,0-8.66,16.17c-1.26,4.84-1.27,11.48,0,12.16,1.72,2.55,15.35,1.11,21.88-2.71,1.85-1.08.7-4.94.06-9.53A33.77,33.77,0,0,0,92,75.19C90.45,72.89,88,68.73,83.81,73Z"/><path class="cls-130" d="M84.16,73.19a40.5,40.5,0,0,0-8.52,16c-1.2,4.59-1.27,10.58-.11,11.29,1.63,2.69,14.76,1.35,21.11-2.49,1.73-1.06.72-4.71.17-9A31.79,31.79,0,0,0,92.14,75.5C90.72,73.3,88.38,69,84.16,73.19Z"/><path class="cls-131" d="M84.52,73.42a39.31,39.31,0,0,0-8.4,15.77C75,93.53,74.86,98.87,75.9,99.6c1.54,2.83,14.18,1.6,20.33-2.27,1.63-1,.75-4.47.3-8.42A30,30,0,0,0,92.3,75.82C91,73.72,88.73,69.29,84.52,73.42Z"/><path class="cls-132" d="M84.88,73.65a38,38,0,0,0-8.27,15.58c-1.08,4.08-1.26,8.77-.34,9.53,1.45,3,13.6,1.85,19.56-2.05,1.51-1,.78-4.25.42-7.87a28.08,28.08,0,0,0-3.8-12.7C91.26,74.13,89.08,69.57,84.88,73.65Z"/><path class="cls-133" d="M85.23,73.88a37.29,37.29,0,0,0-8.14,15.38c-1,3.84-1.25,7.87-.44,8.65C78,101,89.66,100,95.43,96.08c1.4-1,.81-4,.54-7.31-.31-3.75-.58-7.42-3.36-12.32C91.53,74.55,89.43,69.84,85.23,73.88Z"/><path class="cls-134" d="M85.59,74.11a36.05,36.05,0,0,0-8,15.18c-1,3.59-1.11,6.87-.56,7.78,1.79,3,12.44,2.36,18-1.61,1.29-.92.84-3.79.66-6.76-.23-3.66-.24-6.93-2.93-11.93C91.79,75,89.78,70.12,85.59,74.11Z"/><path class="cls-135" d="M86,74.33s-5.28,5.2-7.89,15c-.88,3.34-1.12,6-.67,6.9,1.62,3.21,11.87,2.63,17.24-1.39,1.18-.88.88-3.55.77-6.2-.14-3.57.1-6.45-2.48-11.54C92.05,75.38,90.13,70.4,86,74.33Z"/><path class="cls-136" d="M86.3,74.56s-5.12,5-7.76,14.8c-.81,3.08-1.15,5.13-.78,6,1.41,3.42,11.3,2.9,16.47-1.17,1.07-.85.92-3.32.89-5.65,0-3.48.42-6-2.05-11.16C92.31,75.8,90.48,70.68,86.3,74.56Z"/><path class="cls-137" d="M86.66,74.79s-5,4.72-7.63,14.6c-.76,2.83-1.18,4.25-.89,5.14,1.17,3.63,10.74,3.19,15.68-.94,1-.82,1-3.09,1-5.1.07-3.39.72-5.46-1.62-10.77C92.57,76.22,90.83,71,86.66,74.79Z"/><path class="cls-99" d="M87,75s-4.83,4.48-7.5,14.4c-.69,2.58-1.22,3.37-1,4.27.9,3.81,10.21,3.48,14.91-.73.87-.77,1-2.85,1.14-4.54.2-3.29,1-5-1.18-10.39C92.82,76.63,91.18,71.23,87,75Z"/></g><path class="cls-138" d="M87.65,77.56a45.22,45.22,0,0,0,11.8,7.24c6.22,2.35,16.22,1.8,17.12-2.61,1.32-6.48,6.09-31.26,6.09-31.26s-14.32,5.36-23.28,10.61S84.91,70.12,84.2,71.81,85.62,75.8,87.65,77.56Z"/><g class="cls-4"><path class="cls-113" d="M76.56,60.2a38.12,38.12,0,0,1,3.65-17.15c4.13-8.18,12.18-10.1,17.65-10,3.19.08,19.43,1,19.56,9.82.07,4-5.55,11.26-13.8,16.9-4.8,3.27-11.37,7.1-16.53,7.35S76.54,66.84,76.56,60.2Z"/><path class="cls-114" d="M77,60.26a37.9,37.9,0,0,1,3.65-17.1c4-7.94,11.74-9.62,17-9.71,3.19-.06,19,1.16,19.21,9.84.07,3.86-5.38,10.9-13.34,16.39-4.69,3.23-11,7-16.17,7.34C82.36,67.32,77,66.85,77,60.26Z"/><path class="cls-115" d="M77.4,60.32a37.54,37.54,0,0,1,3.66-17c3.89-7.71,11.31-9.17,16.4-9.48,3.18-.18,18.67,1.29,18.86,9.87.07,3.75-5.22,10.55-12.87,15.88-4.59,3.19-10.65,7-15.82,7.33C82.78,67.23,77.43,66.87,77.4,60.32Z"/><path class="cls-116" d="M77.82,60.38a37.32,37.32,0,0,1,3.66-17c3.78-7.48,10.9-8.73,15.78-9.23,3.18-.32,18.31,1.41,18.51,9.89.08,3.64-5.06,10.19-12.41,15.37-4.48,3.16-10.29,6.88-15.46,7.32C83.21,67.14,77.88,66.89,77.82,60.38Z"/><path class="cls-117" d="M78.24,60.44a37,37,0,0,1,3.67-16.93c3.65-7.25,10.48-8.31,15.15-9,3.17-.45,18,1.53,18.16,9.91.09,3.52-4.89,9.84-11.94,14.86-4.38,3.12-9.93,6.81-15.11,7.31C83.63,67,78.32,66.91,78.24,60.44Z"/><path class="cls-118" d="M78.65,60.51a36.83,36.83,0,0,1,3.68-16.88c3.54-7,10.08-7.92,14.53-8.75,3.16-.59,17.57,1.65,17.81,9.93.09,3.41-4.73,9.49-11.47,14.35-4.28,3.08-9.57,6.73-14.76,7.3C84.06,66.94,78.77,66.93,78.65,60.51Z"/><path class="cls-119" d="M79.07,60.57a36.55,36.55,0,0,1,3.69-16.83c3.41-6.78,9.57-8.16,13.9-8.5,3.21-.25,17.2,1.77,17.45,9.95.1,3.3-4.55,9.13-11,13.84-4.17,3-9.21,6.65-14.4,7.29C84.48,66.83,79.21,67,79.07,60.57Z"/><path class="cls-120" d="M79.49,60.63a36.29,36.29,0,0,1,3.69-16.77c3.3-6.56,9.15-7.86,13.28-8.26,3.22-.31,16.83,1.89,17.1,10,.11,3.18-4.39,8.78-10.53,13.33-4.07,3-8.85,6.57-14.06,7.28C84.91,66.73,79.66,67,79.49,60.63Z"/><path class="cls-121" d="M79.91,60.69A36.05,36.05,0,0,1,83.6,44c3.19-6.32,8.72-7.56,12.66-8,3.24-.37,16.46,2,16.75,10,.11,3.07-4.22,8.43-10.07,12.82-4,3-8.48,6.49-13.7,7.27C85.33,66.62,80.11,67,79.91,60.69Z"/><path class="cls-122" d="M80.33,60.75A35.73,35.73,0,0,1,84,44.09c3.06-6.09,8.29-7.27,12-7.77,3.25-.43,16.09,2.13,16.4,10,.12,3-4,8.09-9.6,12.31-3.87,3-8.12,6.41-13.35,7.25C85.75,66.5,80.55,67,80.33,60.75Z"/><path class="cls-123" d="M80.75,60.81a35.16,35.16,0,0,1,3.7-16.6c2.94-5.87,7.86-7,11.41-7.53,3.26-.5,15.72,2.25,16,10,.12,2.84-3.88,7.74-9.14,11.8-3.76,2.91-7.75,6.32-13,7.24C86.18,66.39,81,67,80.75,60.81Z"/><path class="cls-124" d="M81.17,60.88a34.92,34.92,0,0,1,3.71-16.56c2.81-5.64,7.43-6.71,10.78-7.28s15.34,2.37,15.7,10.05c.12,2.73-3.71,7.4-8.67,11.3C99,61.26,95.3,64.61,90.05,65.61,86.6,66.27,81.44,67.05,81.17,60.88Z"/><path class="cls-125" d="M81.58,60.94a34.75,34.75,0,0,1,3.72-16.5c2.7-5.41,7-6.44,10.16-7s15,2.49,15.34,10.07c.13,2.62-3.53,7.05-8.19,10.79-3.56,2.84-7,6.13-12.29,7.21C87,66.15,81.89,67.07,81.58,60.94Z"/><path class="cls-126" d="M82,61a34.54,34.54,0,0,1,3.72-16.45c2.58-5.17,6.58-6.17,9.54-6.79,3.31-.71,14.6,2.61,15,10.09.14,2.5-3.36,6.71-7.73,10.28-3.45,2.81-6.66,6-11.94,7.2C87.45,66,82.33,67.09,82,61Z"/><path class="cls-127" d="M82.42,61.06a34.09,34.09,0,0,1,3.73-16.39c2.46-5,6.14-5.91,8.91-6.55,3.33-.78,14.22,2.73,14.64,10.11.14,2.39-3.18,6.38-7.26,9.77-3.35,2.78-6.31,5.94-11.59,7.19C87.87,65.89,82.78,67.11,82.42,61.06Z"/><path class="cls-128" d="M82.84,61.12a33.82,33.82,0,0,1,3.73-16.33c2.35-4.72,5.71-5.66,8.29-6.32,3.35-.85,13.85,2.86,14.29,10.14.14,2.27-3,6-6.8,9.26-3.23,2.75-5.94,5.84-11.23,7.18C88.3,65.76,83.23,67.13,82.84,61.12Z"/><path class="cls-129" d="M83.26,61.18A33.56,33.56,0,0,1,87,44.9a10.63,10.63,0,0,1,7.66-6.07c3.36-.93,13.47,3,13.94,10.16.14,2.16-2.83,5.71-6.33,8.75-3.13,2.72-5.58,5.74-10.88,7.17C88.72,65.63,83.67,67.15,83.26,61.18Z"/><path class="cls-130" d="M83.68,61.25A33.34,33.34,0,0,1,87.42,45a10.15,10.15,0,0,1,7-5.83c3.38-1,13.09,3.1,13.59,10.18.14,2.05-2.65,5.38-5.87,8.24-3,2.69-5.21,5.62-10.52,7.16C89.14,65.49,84.12,67.17,83.68,61.25Z"/><path class="cls-131" d="M84.1,61.31s-.67-7.25,3.75-16.18a9.61,9.61,0,0,1,6.41-5.58c3.39-1.12,12.71,3.22,13.24,10.2.14,1.93-2.47,5-5.4,7.73S97.24,63,91.93,64.63C89.56,65.35,84.56,67.19,84.1,61.31Z"/><path class="cls-132" d="M84.51,61.37s-.67-7.15,3.76-16.12c1.87-3.79,4-4.69,5.79-5.34,3.4-1.23,12.33,3.34,12.88,10.21.15,1.83-2.27,4.73-4.92,7.23-2.81,2.65-4.51,5.38-9.82,7.13C90,65.21,85,67.21,84.51,61.37Z"/><path class="cls-133" d="M84.93,61.43s-.68-7,3.76-16.06c1.76-3.56,3.54-4.46,5.17-5.1,3.41-1.34,12,3.46,12.53,10.23.15,1.72-2.09,4.41-4.46,6.72-2.69,2.63-4.15,5.25-9.47,7.12C90.4,65.07,85.46,67.23,84.93,61.43Z"/><path class="cls-134" d="M85.35,61.49s-.67-6.94,3.77-16c1.64-3.32,3.1-4.22,4.54-4.85,3.4-1.48,11.56,3.58,12.18,10.25.15,1.6-1.9,4.09-4,6.21C99.28,59.7,98,62.2,92.73,64.2,90.82,64.93,85.9,67.25,85.35,61.49Z"/><path class="cls-135" d="M85.77,61.55s-.68-6.85,3.77-15.95c1.53-3.09,2.66-4,3.92-4.61,3.39-1.63,11.18,3.7,11.83,10.27.15,1.49-1.71,3.77-3.53,5.7-2.44,2.6-3.46,4.95-8.76,7.1C91.23,64.78,86.35,67.27,85.77,61.55Z"/><path class="cls-136" d="M86.19,61.62S85.5,54.86,90,45.71c1.4-2.86,2.2-3.78,3.29-4.36,3.36-1.81,10.78,3.82,11.48,10.29.14,1.38-1.51,3.46-3.06,5.2-2.32,2.59-3.13,4.77-8.41,7.08C91.65,64.63,86.79,67.29,86.19,61.62Z"/><path class="cls-137" d="M86.61,61.68s-.7-6.66,3.78-15.85c1.29-2.63,1.75-3.56,2.67-4.12,3.29-2,10.39,3.95,11.13,10.31.14,1.27-1.31,3.14-2.6,4.69-2.17,2.6-2.81,4.59-8,7.07C92.06,64.48,87.24,67.31,86.61,61.68Z"/><path class="cls-99" d="M87,61.74S86.32,55.18,90.82,46c1.16-2.4,1.28-3.34,2-3.88,3.18-2.29,10,4.07,10.77,10.33.15,1.15-1.09,2.83-2.12,4.18-2,2.61-2.5,4.38-7.7,7.06C92.47,64.33,87.68,67.33,87,61.74Z"/></g><g class="cls-4"><path class="cls-113" d="M69.13,71.52s-8.46-1.25-14,.41S40.43,79.6,41.3,81.43s9.46,12.81,14.56,16.75c2,1.55,5-2.47,9.48-7,2.6-2.63,6.3-9.94,7-13.14S73.29,72.26,69.13,71.52Z"/><path class="cls-114" d="M69.12,71.79s-8.28-1.25-13.91.41c-5.43,1.61-14.11,7.37-13.33,9.16S51,93.91,56.08,97.76c2,1.49,4.87-2.4,9.21-6.76,2.56-2.57,6.19-9.57,7-12.78S73.25,72.54,69.12,71.79Z"/><path class="cls-115" d="M69.11,72.06s-8.11-1.24-13.76.42C50.08,74,41.77,79.54,42.47,81.29s8.83,12.3,13.82,16c1.9,1.44,4.73-2.32,8.95-6.51,2.52-2.51,6.08-9.21,6.9-12.41C72.92,75.41,73.21,72.83,69.11,72.06Z"/><path class="cls-116" d="M69.1,72.33s-7.93-1.24-13.61.42c-5.11,1.52-13.06,6.77-12.44,8.47s8.52,12,13.45,15.69c1.86,1.38,4.6-2.25,8.68-6.27,2.49-2.44,6-8.85,6.84-12C72.81,75.7,73.17,73.11,69.1,72.33Z"/><path class="cls-117" d="M69.09,72.6s-7.75-1.24-13.46.43c-5,1.47-12.53,6.47-12,8.12s8.21,11.79,13.08,15.34c1.81,1.32,4.47-2.18,8.42-6C67.59,88.08,71,82,71.9,78.79,72.69,76,73.14,73.39,69.09,72.6Z"/><path class="cls-118" d="M69.08,72.87s-7.57-1.24-13.31.44c-4.8,1.41-12,6.17-11.55,7.77.51,1.78,7.89,11.53,12.7,15,1.76,1.27,4.34-2.09,8.16-5.77C67.5,88,70.83,82.16,71.77,79,72.58,76.28,73.1,73.67,69.08,72.87Z"/><path class="cls-119" d="M69.07,73.14s-7.39-1.24-13.16.44C51.27,75,44.42,79.46,44.8,81c.44,1.77,7.58,11.28,12.33,14.63,1.71,1.21,4.21-2,7.89-5.53a32.84,32.84,0,0,0,6.63-11C72.46,76.57,73.06,74,69.07,73.14Z"/><path class="cls-120" d="M69.06,73.41s-7.22-1.24-13,.45c-4.48,1.32-11,5.59-10.66,7.08.36,1.77,7.26,11,12,14.28,1.66,1.15,4.08-2,7.63-5.28a32.15,32.15,0,0,0,6.56-10.59C72.34,76.86,73,74.23,69.06,73.41Z"/><path class="cls-121" d="M69.05,73.67s-7-1.22-12.86.47C51.86,75.41,45.73,79.43,46,80.87c.29,1.78,6.94,10.77,11.59,13.92,1.6,1.1,3.94-1.86,7.36-5a31,31,0,0,0,6.49-10.22C72.22,77.15,73,74.52,69.05,73.67Z"/><path class="cls-122" d="M69,73.94s-6.86-1.22-12.71.47c-4.17,1.23-9.94,5-9.78,6.39.22,1.79,6.63,10.52,11.22,13.57,1.56,1,3.81-1.79,7.09-4.79a29.48,29.48,0,0,0,6.42-9.86C72.09,77.44,72.94,74.8,69,73.94Z"/><path class="cls-123" d="M69,74.21s-6.69-1.23-12.56.48c-4,1.17-9.68,4.77-9.33,6C46.94,82.52,53.45,91,58,94c1.51,1,3.68-1.71,6.83-4.55a28.6,28.6,0,0,0,6.35-9.49C72,77.73,72.9,75.08,69,74.21Z"/><path class="cls-124" d="M69,74.48A30.63,30.63,0,0,0,56.61,75c-3.85,1.12-9.19,4.49-8.89,5.7-.3,1.79,6,10,10.47,12.86,1.46.93,3.56-1.63,6.57-4.29A27.77,27.77,0,0,0,71,80.1C71.84,78,72.87,75.36,69,74.48Z"/><path class="cls-125" d="M69,74.75a29.73,29.73,0,0,0-12.27.49c-3.7,1.07-8.69,4.19-8.44,5.35C47.9,82.37,54,90.35,58.4,93.1c1.41.88,3.43-1.55,6.3-4a26.13,26.13,0,0,0,6.21-8.76C71.71,78.3,72.83,75.64,69,74.75Z"/><path class="cls-126" d="M69,75a28.85,28.85,0,0,0-12.12.5c-3.54,1-8.19,3.9-8,5-.52,1.79,5.35,9.52,9.72,12.17,1.35.82,3.31-1.47,6-3.81a25.17,25.17,0,0,0,6.14-8.4C71.58,78.59,72.79,75.92,69,75Z"/><path class="cls-127" d="M69,75.29a28.08,28.08,0,0,0-12,.5c-3.38,1-7.7,3.62-7.55,4.65-.63,1.78,5,9.27,9.34,11.82,1.3.76,3.18-1.39,5.78-3.56a24,24,0,0,0,6.07-8C71.45,78.87,72.75,76.21,69,75.29Z"/><path class="cls-128" d="M69,75.56a27.23,27.23,0,0,0-11.82.51C54,77,50,79.39,50.06,80.37c-.73,1.78,4.71,9,9,11.46,1.24.71,3.05-1.3,5.5-3.31a22.78,22.78,0,0,0,6-7.67C71.31,79.16,72.71,76.49,69,75.56Z"/><path class="cls-129" d="M69,75.83a26.47,26.47,0,0,0-11.67.51c-3.07.89-6.71,3-6.67,4-.83,1.77,4.39,8.78,8.61,11.11,1.19.66,2.93-1.22,5.24-3.07A21.53,21.53,0,0,0,70.42,81C71.18,79.44,72.67,76.77,69,75.83Z"/><path class="cls-130" d="M69,76.1a25.81,25.81,0,0,0-11.52.52c-2.91.83-6.21,2.74-6.22,3.61C50.28,82,55.29,88.76,59.46,91c1.14.6,2.81-1.14,5-2.83a20.3,20.3,0,0,0,5.86-6.94C71,79.73,72.63,77.05,69,76.1Z"/><path class="cls-131" d="M69,76.37a25,25,0,0,0-11.37.53c-2.75.78-5.71,2.45-5.78,3.26-1.05,1.76,3.74,8.29,7.86,10.4,1.09.56,2.7-1,4.71-2.57a19.23,19.23,0,0,0,5.8-6.58C70.9,80,72.6,77.33,69,76.37Z"/><path class="cls-132" d="M69,76.64a24.27,24.27,0,0,0-11.22.53c-2.59.74-5.22,2.17-5.33,2.92-1.16,1.76,3.4,8,7.48,10,1,.51,2.58-1,4.45-2.33a17.87,17.87,0,0,0,5.72-6.21C70.76,80.29,72.56,77.61,69,76.64Z"/><path class="cls-133" d="M68.94,76.91a23.48,23.48,0,0,0-11.07.54c-2.43.69-4.72,1.87-4.89,2.57-1.26,1.75,3.08,7.82,7.11,9.7,1,.45,2.46-.87,4.19-2.09a16.68,16.68,0,0,0,5.65-5.84C70.62,80.58,72.52,77.9,68.94,76.91Z"/><path class="cls-134" d="M68.93,77.18A23.08,23.08,0,0,0,58,77.72c-2.27.65-4.12,1.63-4.45,2.23-1.06,2,2.75,7.58,6.74,9.34.93.41,2.35-.77,3.92-1.84A15.52,15.52,0,0,0,69.81,82C70.48,80.86,72.48,78.18,68.93,77.18Z"/><path class="cls-135" d="M68.93,77.45A22.34,22.34,0,0,0,58.15,78c-2.12.6-3.66,1.34-4,1.88-1.23,1.93,2.41,7.36,6.37,9,.86.36,2.23-.67,3.65-1.59,1.91-1.24,3.56-2,5.51-5.12C70.33,81.13,72.44,78.46,68.93,77.45Z"/><path class="cls-136" d="M68.92,77.72a21.58,21.58,0,0,0-10.63.56c-2,.55-3.19,1-3.56,1.53-1.41,1.88,2.09,7.14,6,8.64.81.31,2.12-.58,3.39-1.35C66,86,67.51,85.39,69.56,82.35,70.19,81.41,72.4,78.74,68.92,77.72Z"/><path class="cls-137" d="M68.91,78s-4.21-1.19-10.48.57c-1.8.51-2.72.74-3.11,1.19-1.61,1.82,1.75,6.92,5.62,8.28.76.27,2-.47,3.12-1.1,1.88-1.06,3.22-1.38,5.38-4.39C70,81.69,72.37,79,68.91,78Z"/><path class="cls-99" d="M68.9,78.25s-4-1.19-10.33.58c-1.64.46-2.24.42-2.67.84-1.8,1.73,1.41,6.72,5.25,7.93.7.22,1.9-.36,2.86-.85,1.87-1,3-1.07,5.31-4C69.9,82,72.33,79.31,68.9,78.25Z"/></g><path class="cls-139" d="M87.09,76.45s10.57,6,10.8,13.19S96.78,95.46,88,96s-21.4,1.47-21.4,1.47-.57-4.81,6.75-14S82.22,72.07,87.09,76.45Z"/><path class="cls-140" d="M93.17,66.39a28.84,28.84,0,0,0,12.22-15.74c3.55-11,4.18-16.51-1.92-18C98,31.23,79.22,25,78.7,24.82s-2.19,2.77-3,5.13-3.27,10.68,5.19,28.28c1.5,3.55,1.33,8,2.72,9.28C87.72,71.5,93.17,66.39,93.17,66.39Z"/><path class="cls-2" d="M122.85,49.91s.15-1.28-1.9-2.12-7-2.74-17,3.28c2,3.4,9.82,16.14,11.51,21.66s1.48,7.15,1,9.33C117.82,75.88,122.85,49.91,122.85,49.91Z"/><path class="cls-141" d="M123,49.64s.15-1.27-1.89-2.12-7-2.73-16.95,3.28c2,3.41,9.81,16.15,11.5,21.67s1.48,7.15,1,9.32C117.93,75.62,123,49.64,123,49.64Z"/><path class="cls-142" d="M84.89,68.92S82,63.21,78.38,56.09,68,39.66,61.9,34.88s-5.42-5.07-6.56-3.62-16.66,22-17.19,23.12-.41,4,2.65,7.28S55.28,72.09,66,73.29,86.54,74.39,84.89,68.92Z"/><path class="cls-143" d="M62.8,86.43a9.13,9.13,0,0,1,1.11,2.71c.22,1.25-.22,2.88-1.63,3.09s-1.18-.12-1.18-.12,1.14.52,1.42-1a4.67,4.67,0,0,0-.72-3.79C61,86.14,62.8,86.43,62.8,86.43Z"/><g class="cls-4"><g class="cls-5"><path class="cls-2" d="M107.48,34.54l-28.65-9.2s-4,3.36,1.06,3.31c7.83-.07,14.25,32.54,22.72,27.57C107.16,53.55,113.26,36.4,107.48,34.54Z"/></g><g class="cls-144"><path class="cls-145" d="M107.08,34.45l-28-9s-3.87,3.23,1,3.25c7.56,0,13.79,31.55,22,26.75C106.61,52.87,112.74,36.27,107.08,34.45Z"/></g><g class="cls-146"><path class="cls-147" d="M106.68,34.36l-27.33-8.8s-3.75,3.1,1,3.19c7.29.14,13.33,30.53,21.33,25.93C106.05,52.17,112.22,36.14,106.68,34.36Z"/></g><g class="cls-148"><path class="cls-149" d="M106.28,34.27l-26.66-8.6s-3.63,3,1,3.12c7,.25,12.87,29.54,20.63,25.13C105.5,51.48,111.69,36,106.28,34.27Z"/></g><g class="cls-150"><path class="cls-151" d="M105.88,34.17l-26-8.39s-3.5,2.83.93,3.06c6.74.35,12.4,28.54,19.94,24.31C105,50.79,111.17,35.87,105.88,34.17Z"/></g><g class="cls-152"><path class="cls-153" d="M105.48,34.08,80.14,25.89s-3.38,2.7.9,3c6.47.45,11.95,27.53,19.24,23.49C104.39,50.11,110.65,35.74,105.48,34.08Z"/></g><g class="cls-154"><path class="cls-155" d="M105.08,34,80.4,26s-3.25,2.56.86,2.93c6.2.56,11.5,26.54,18.56,22.69C103.84,49.42,110.13,35.6,105.08,34Z"/></g><g class="cls-156"><path class="cls-157" d="M104.68,33.9l-24-7.8s-3.14,2.44.82,2.88c5.93.66,11,25.54,17.86,21.87C103.29,48.73,109.6,35.47,104.68,33.9Z"/></g><g class="cls-158"><path class="cls-159" d="M104.28,33.81l-23.35-7.6s-3,2.3.79,2.82c5.65.76,10.58,24.54,17.16,21C102.73,48,109.08,35.33,104.28,33.81Z"/></g><g class="cls-160"><path class="cls-161" d="M103.88,33.72l-22.69-7.4s-2.89,2.17.76,2.75c5.37.87,10.12,23.55,16.47,20.24C102.18,47.35,108.56,35.2,103.88,33.72Z"/></g><g class="cls-162"><path class="cls-163" d="M103.48,33.63l-22-7.2s-2.77,2,.73,2.69c5.09,1,9.66,22.55,15.77,19.43C101.63,46.66,108,35.07,103.48,33.63Z"/></g><g class="cls-164"><path class="cls-165" d="M103.08,33.53l-21.36-7s-2.66,1.89.68,2.63c4.82,1,9.22,21.55,15.08,18.61C101.08,46,107.51,34.93,103.08,33.53Z"/></g><g class="cls-166"><path class="cls-167" d="M102.68,33.44,82,26.65s-2.54,1.75.65,2.56C87.17,30.36,91.39,49.77,97,47,100.53,45.29,107,34.8,102.68,33.44Z"/></g><g class="cls-168"><path class="cls-169" d="M102.28,33.35l-20-6.59s-2.42,1.61.62,2.5c4.26,1.24,8.3,19.57,13.69,17C100,44.6,106.47,34.67,102.28,33.35Z"/></g><g class="cls-170"><path class="cls-171" d="M101.88,33.26,82.51,26.87s-2.31,1.47.58,2.44c4,1.33,7.85,18.57,13,16.17C99.43,43.92,106,34.53,101.88,33.26Z"/></g><g class="cls-172"><path class="cls-173" d="M101.48,33.17,82.77,27s-2.19,1.33.55,2.38c3.7,1.42,7.39,17.59,12.3,15.36C98.88,43.23,105.42,34.4,101.48,33.17Z"/></g><g class="cls-174"><path class="cls-175" d="M101.08,33.08l-18-6s-2.07,1.19.52,2.32C87,30.89,90.49,46,95.15,43.94,98.33,42.55,104.9,34.27,101.08,33.08Z"/></g><g class="cls-176"><path class="cls-177" d="M100.68,33l-17.39-5.8s-2,1,.48,2.25c3.15,1.58,6.5,15.61,10.92,13.74C97.78,41.86,104.38,34.13,100.68,33Z"/></g><g class="cls-178"><path class="cls-179" d="M100.28,32.89,83.56,27.3s-1.85.88.44,2.19c2.87,1.64,6,14.62,10.22,12.92C97.23,41.18,103.85,34,100.28,32.89Z"/></g><g class="cls-180"><path class="cls-181" d="M99.87,32.8,83.82,27.41s-1.72.72.41,2.13c2.59,1.71,5.59,13.63,9.52,12.1C96.68,40.5,103.33,33.86,99.87,32.8Z"/></g><g class="cls-182"><path class="cls-183" d="M99.47,32.71,84.08,27.52s-1.6.56.38,2.06c2.32,1.77,5.14,12.66,8.83,11.29C96.13,39.82,102.81,33.73,99.47,32.71Z"/></g><g class="cls-184"><path class="cls-185" d="M99.07,32.62l-14.73-5s-1.47.39.35,2c2.06,1.83,4.69,11.68,8.13,10.48C95.59,39.14,102.29,33.6,99.07,32.62Z"/></g><g class="cls-186"><path class="cls-187" d="M98.67,32.53l-14.06-4.8s-1.34.23.31,1.95c1.8,1.87,4.24,10.69,7.44,9.66C95,38.47,101.76,33.46,98.67,32.53Z"/></g><g class="cls-188"><path class="cls-189" d="M98.27,32.44l-13.4-4.6s-1.19.06.27,1.88,3.81,9.73,6.75,8.85C94.5,37.8,101.24,33.33,98.27,32.44Z"/></g><g class="cls-190"><path class="cls-191" d="M97.87,32.34,85.13,28s-1-.11.24,1.82,3.36,8.75,6,8C94,37.13,100.72,33.2,97.87,32.34Z"/></g><path class="cls-192" d="M97.47,32.25,85.39,28.06s-.87-.29.21,1.76S88.51,37.6,91,37,100.2,33.06,97.47,32.25Z"/></g><g class="cls-4"><g class="cls-5"><path class="cls-193" d="M39.48,53.65,55.7,31.87s2.86-2.18,11.21,11.66c6,10,8.51,15.28,2.48,15.4C42.93,59.46,35.76,58.45,39.48,53.65Z"/></g><g class="cls-144"><path class="cls-194" d="M39.61,53.44,55.67,31.93s2.82-2.11,10.85,11.3c5.82,9.74,8.32,15,2.41,15.16C43.4,59,35.94,58.16,39.61,53.44Z"/></g><g class="cls-146"><path class="cls-195" d="M39.74,53.23,55.63,32s2.79-2,10.5,11c5.59,9.46,8.13,14.74,2.34,14.91C43.88,58.58,36.13,57.88,39.74,53.23Z"/></g><g class="cls-148"><path class="cls-196" d="M39.88,53,55.59,32s2.75-2,10.14,10.59c5.37,9.19,8,14.47,2.27,14.67C44.35,58.13,36.32,57.6,39.88,53Z"/></g><g class="cls-150"><path class="cls-197" d="M40,52.81,55.56,32.09s2.74-1.9,9.78,10.24c5.16,8.9,7.76,14.2,2.2,14.43C44.83,57.68,36.5,57.31,40,52.81Z"/></g><g class="cls-152"><path class="cls-198" d="M40.14,52.6,55.52,32.15S58.24,30.32,65,42c4.94,8.62,7.57,13.93,2.13,14.18C45.3,57.23,36.69,57,40.14,52.6Z"/></g><g class="cls-154"><path class="cls-199" d="M40.27,52.39,55.48,32.2s2.69-1.76,9.08,9.53c4.71,8.34,7.38,13.66,2.06,13.94C45.78,56.77,36.88,56.75,40.27,52.39Z"/></g><g class="cls-156"><path class="cls-200" d="M40.4,52.18,55.45,32.26s2.66-1.69,8.71,9.17c4.5,8.06,7.2,13.39,2,13.7C46.26,56.3,37.06,56.47,40.4,52.18Z"/></g><g class="cls-158"><path class="cls-201" d="M40.54,52,55.41,32.32S58,30.7,63.77,41.13c4.27,7.78,7,13.12,1.92,13.45C46.73,55.83,37.25,56.18,40.54,52Z"/></g><g class="cls-160"><path class="cls-202" d="M40.67,51.76l14.7-19.39s2.61-1.55,8,8.46c4.05,7.51,6.83,12.84,1.85,13.21C47.21,55.36,37.44,55.9,40.67,51.76Z"/></g><g class="cls-162"><path class="cls-203" d="M40.8,51.55,55.34,32.43S57.91,31,63,40.54c3.82,7.22,6.64,12.56,1.77,13C47.69,54.88,37.62,55.62,40.8,51.55Z"/></g><g class="cls-164"><path class="cls-204" d="M40.93,51.34,55.3,32.48s2.55-1.4,7.3,7.76c3.6,6.94,6.45,12.29,1.7,12.71C48.17,54.39,37.81,55.33,40.93,51.34Z"/></g><g class="cls-166"><path class="cls-205" d="M41.06,51.13l14.2-18.59s2.52-1.33,6.94,7.4c3.38,6.66,6.27,12,1.64,12.47C48.65,53.9,38,55.05,41.06,51.13Z"/></g><g class="cls-168"><path class="cls-206" d="M41.19,50.92l14-18.33s2.48-1.26,6.58,7C65,46,67.9,51.38,63.37,51.86,49.12,53.4,38.19,54.77,41.19,50.92Z"/></g><g class="cls-170"><path class="cls-207" d="M41.33,50.71,55.19,32.65s2.45-1.19,6.23,6.69c2.93,6.11,5.9,11.46,1.49,12C49.6,52.89,38.37,54.48,41.33,50.71Z"/></g><g class="cls-172"><path class="cls-208" d="M41.46,50.5,55.15,32.7S57.57,31.59,61,39c2.7,5.84,5.71,11.18,1.42,11.74C50.08,52.37,38.56,54.2,41.46,50.5Z"/></g><g class="cls-174"><path class="cls-209" d="M41.59,50.29,55.12,32.76s2.38-1,5.51,6c2.49,5.56,5.54,10.9,1.35,11.49C50.56,51.84,38.75,53.92,41.59,50.29Z"/></g><g class="cls-176"><path class="cls-210" d="M41.72,50.08,55.08,32.82s2.35-1,5.16,5.62c2.26,5.29,5.35,10.62,1.28,11.25C51,51.31,38.93,53.63,41.72,50.08Z"/></g><g class="cls-178"><path class="cls-211" d="M41.85,49.87,55,32.87s2.32-.88,4.81,5.27c2,5,5.16,10.34,1.21,11C51.51,50.76,39.12,53.35,41.85,49.87Z"/></g><g class="cls-180"><path class="cls-212" d="M42,49.66,55,32.93s2.27-.81,4.45,4.91c1.8,4.74,5,10,1.14,10.76C52,50.2,39.31,53.07,42,49.66Z"/></g><g class="cls-182"><path class="cls-213" d="M42.12,49.45,55,33s2.23-.72,4.1,4.56c1.57,4.47,4.79,9.75,1.06,10.52C52.46,49.63,39.49,52.78,42.12,49.45Z"/></g><g class="cls-184"><path class="cls-214" d="M42.25,49.24,54.93,33s2.19-.65,3.74,4.2c1.34,4.2,4.61,9.45,1,10.27C52.93,49,39.68,52.5,42.25,49.24Z"/></g><g class="cls-186"><path class="cls-215" d="M42.38,49,54.9,33.09S57,32.53,58.28,37c1.1,3.92,4.42,9.13.93,10C53.4,48.44,39.87,52.22,42.38,49Z"/></g><g class="cls-188"><path class="cls-216" d="M42.51,48.82,54.86,33.15s2.09-.48,3,3.5c.86,3.65,4.22,8.81.85,9.78C53.85,47.83,40.05,51.94,42.51,48.82Z"/></g><g class="cls-190"><path class="cls-217" d="M42.65,48.61,54.82,33.2s2-.4,2.68,3.15c.61,3.38,4,8.46.78,9.53C54.3,47.2,40.24,51.65,42.65,48.61Z"/></g><path class="cls-192" d="M42.78,48.4l12-15.14s2-.32,2.31,2.79,3.8,8.07.72,9.29S40.43,51.37,42.78,48.4Z"/></g><path class="cls-218" d="M57.51,87.18a10.87,10.87,0,0,0,2.34,3.71c1.31,1,2,1.48,3.2,1.06-1.65,1.29-3.46.79-4.82-.83a14,14,0,0,1-2.41-4.65C56.79,86.92,57.51,87.18,57.51,87.18Z"/><path class="cls-219" d="M86.92,64.59s4.9,1.08,5.5,4.52-6.46,6.41-8.53,7-5.87-1-4.69-4.23S82.67,64.89,86.92,64.59Z"/><path class="cls-220" d="M75.6,72a23,23,0,0,1-12-.15C57.3,70,52.17,68.11,50.86,68.73S53,81.15,54.49,84.37s2.13,4.55,5.33,4.34a21.78,21.78,0,0,0,12.26-5c4.75-3.76,5.85-4.83,7.18-7.31S80.77,70.7,75.6,72Z"/><g class="cls-4"><g class="cls-5"><path class="cls-2" d="M56.86,88.47,41.51,65.38s7.79,5.36,21.18,3.79,21.82,3.06,19,8.39C74.36,91.48,58.18,89,56.86,88.47Z"/></g><g class="cls-144"><path class="cls-145" d="M56.72,88.24,41.56,65.44s7.64,5.27,20.62,3.79,21.18,3.08,18.44,8.28C73.51,91,58.07,88.86,56.72,88.24Z"/></g><g class="cls-146"><path class="cls-147" d="M56.58,88l-15-22.52s7.5,5.2,20.07,3.81,20.53,3.09,17.86,8.17C72.66,90.51,58,88.73,56.58,88Z"/></g><g class="cls-148"><path class="cls-149" d="M56.44,87.78,41.64,65.54S49,70.67,61.16,69.36,81,72.46,78.44,77.42C71.82,90,57.85,88.61,56.44,87.78Z"/></g><g class="cls-150"><path class="cls-151" d="M56.29,87.55l-14.61-22s7.23,5,19,3.84,19.24,3.11,16.71,7.94C71,89.54,57.74,88.48,56.29,87.55Z"/></g><g class="cls-152"><path class="cls-153" d="M56.15,87.32,41.72,65.64s7.09,5,18.42,3.85,18.59,3.13,16.13,7.83C70.12,89.06,57.63,88.36,56.15,87.32Z"/></g><g class="cls-154"><path class="cls-155" d="M56,87.09,41.76,65.69s7,4.91,17.87,3.86,17.94,3.15,15.56,7.72C69.27,88.57,57.52,88.23,56,87.09Z"/></g><g class="cls-156"><path class="cls-157" d="M55.87,86.86,41.81,65.75a27.55,27.55,0,0,0,17.31,3.87c10.55-1,17.29,3.16,15,7.61C68.42,88.09,57.41,88.11,55.87,86.86Z"/></g><g class="cls-158"><path class="cls-159" d="M55.73,86.63,41.85,65.8A26.8,26.8,0,0,0,58.6,69.68c10.14-.88,16.66,3.18,14.42,7.5C67.58,87.6,57.3,88,55.73,86.63Z"/></g><g class="cls-160"><path class="cls-161" d="M55.59,86.4,41.89,65.85a26.11,26.11,0,0,0,16.2,3.89c9.73-.78,16,3.2,13.84,7.39C66.73,87.12,57.19,87.86,55.59,86.4Z"/></g><g class="cls-162"><path class="cls-163" d="M55.45,86.17,41.93,65.9a25.53,25.53,0,0,0,15.65,3.91C66.89,69.11,73,73,70.85,77.08,65.9,86.64,57.09,87.74,55.45,86.17Z"/></g><g class="cls-164"><path class="cls-165" d="M55.31,85.94,42,66a24.84,24.84,0,0,0,15.1,3.92C66,69.26,71.79,73.1,69.76,77,65.05,86.16,57,87.61,55.31,85.94Z"/></g><g class="cls-166"><path class="cls-167" d="M55.16,85.71,42,66a24.16,24.16,0,0,0,14.54,3.92C65,69.41,70.64,73.18,68.68,77,64.21,85.68,56.87,87.49,55.16,85.71Z"/></g><g class="cls-168"><path class="cls-169" d="M55,85.48l-13-19.42a23.64,23.64,0,0,0,14,3.94c8.06-.44,13.43,3.26,11.54,6.94C63.36,85.19,56.76,87.36,55,85.48Z"/></g><g class="cls-170"><path class="cls-171" d="M54.88,85.25,42.1,66.11a23,23,0,0,0,13.44,4c7.64-.35,12.78,3.27,11,6.83C62.51,84.71,56.65,87.24,54.88,85.25Z"/></g><g class="cls-172"><path class="cls-173" d="M54.74,85,42.14,66.16a22.53,22.53,0,0,0,12.89,4c7.22-.27,12.13,3.28,10.39,6.71C61.66,84.22,56.54,87.11,54.74,85Z"/></g><g class="cls-174"><path class="cls-175" d="M54.6,84.79,42.18,66.21s5.55,4.15,12.34,4,11.49,3.3,9.81,6.6C60.81,83.74,56.43,87,54.6,84.79Z"/></g><g class="cls-176"><path class="cls-177" d="M54.46,84.56,42.23,66.26s5.4,4.08,11.77,4,10.85,3.32,9.25,6.49C60,83.25,56.32,86.86,54.46,84.56Z"/></g><g class="cls-178"><path class="cls-179" d="M54.32,84.33l-12-18s5.26,4,11.22,4,10.2,3.33,8.67,6.38C59.12,82.77,56.21,86.74,54.32,84.33Z"/></g><g class="cls-180"><path class="cls-181" d="M54.18,84.1,42.31,66.37s5.12,3.92,10.67,4,9.56,3.35,8.1,6.27C58.27,82.28,56.1,86.61,54.18,84.1Z"/></g><g class="cls-182"><path class="cls-183" d="M54,83.87,42.35,66.42s5,3.85,10.12,4S61.38,73.81,60,76.6C57.42,81.79,56,86.49,54,83.87Z"/></g><g class="cls-184"><path class="cls-185" d="M53.89,83.64,42.39,66.47s4.85,3.78,9.57,4,8.26,3.37,6.95,6C56.57,81.31,55.88,86.36,53.89,83.64Z"/></g><g class="cls-186"><path class="cls-187" d="M53.75,83.41,42.43,66.52s4.71,3.7,9,4S59.06,74,57.82,76.5C55.72,80.82,55.77,86.24,53.75,83.41Z"/></g><g class="cls-188"><path class="cls-189" d="M53.61,83.18,42.48,66.58s4.56,3.62,8.46,4,7,3.41,5.8,5.83C54.87,80.34,55.66,86.11,53.61,83.18Z"/></g><g class="cls-190"><path class="cls-191" d="M53.47,83,42.52,66.63s4.42,3.55,7.91,4.07,6.31,3.42,5.22,5.71C54,79.85,55.56,86,53.47,83Z"/></g><path class="cls-192" d="M53.33,82.72l-10.77-16s4.29,3.47,7.35,4.08,5.67,3.43,4.66,5.6C53.16,79.36,55.45,85.86,53.33,82.72Z"/></g><path class="cls-221" d="M66.17,57.11s-2.15,8.76-6.1,15S54.66,85.37,56.68,87.8C51.74,81,41.05,65.63,41.05,65.63s-.78-1.38,1.19-3,8.5-5.86,15.49-6.14S66.17,57.11,66.17,57.11Z"/><path class="cls-222" d="M65.9,57s-2.14,8.75-6.1,15-5.4,13.28-3.39,15.71c-4.93-6.81-15.63-22.17-15.63-22.17S40,64.13,42,62.46s8.51-5.85,15.5-6.13S65.9,57,65.9,57Z"/><path class="cls-223" d="M75.61,76.38A131.84,131.84,0,0,0,87.39,89.65c5.29,4.89,7.18,6,9.27,5.35-.35.54-4.68.92-16.51,1.65-6.84.42-17.56,1-17.56,1s-1-1-.22-3.35C63.39,90.07,67.37,81.9,75.61,76.38Z"/><path class="cls-224" d="M75.5,76.65A133.78,133.78,0,0,0,87.27,89.92c5.3,4.88,7.19,6,9.27,5.35-.35.54-4.68.91-16.51,1.65-6.83.42-17.56,1-17.56,1s-.95-1-.22-3.35C63.27,90.34,67.26,82.16,75.5,76.65Z"/><path class="cls-221" d="M106.38,34s-2.17-1.48-7.14,1.14-13.4,7.63-13.4,7.63-2.72-11.18-4.21-14-2.53-3.84-2.9-3.37c.19-.54-.12-.25,4.16,1S106,33.1,106.38,34Z"/><path class="cls-225" d="M106,33.73s-2.17-1.49-7.14,1.14-13.28,7.25-13.28,7.25-2.84-10.8-4.33-13.65-2.54-3.85-2.91-3.38c.2-.53-.11-.24,4.17,1S105.66,32.8,106,33.73Z"/><path class="cls-226" d="M56,30.41s-.31.47.73,2.85,3.84,9.75,4,12.24c-2,1.17-10.26,2.81-13.36,3.88s-8.8,2.74-9.27,5.74c.47-3,2.24-3.53,5.27-7.86S56,30.41,56,30.41Z"/><path class="cls-2" d="M56,30.6s-.3.47.74,2.85,3.84,9.75,4,12.24c-2,1.17-10.26,2.81-13.37,3.88s-8.79,2.74-9.26,5.74c.47-3,2.24-3.53,5.26-7.86S56,30.6,56,30.6Z"/><path class="cls-226" d="M56,30.41s-.31.47.73,2.85,3.84,9.75,4,12.24c-2,1.17-10.26,2.81-13.36,3.88s-8.8,2.74-9.27,5.74c.47-3,2.24-3.53,5.27-7.86S56,30.41,56,30.41Z"/><path class="cls-227" d="M29.13,83a4.54,4.54,0,0,1-1.5-3.75c.12-2.5-.5-6.25,12.75-14.37,4.37,7.87,19.5,28.87,26.12,33.62s7.75,4.63,7.75,4.63a39,39,0,0,1-7.25-3C63,98,29.13,83,29.13,83Z"/><path class="cls-228" d="M28.63,83.24a4.54,4.54,0,0,1-1.5-3.75c.12-2.5-.5-6.25,12.75-14.37C44.25,73,59.38,94,66,98.74s7.75,4.63,7.75,4.63a39,39,0,0,1-7.25-3C62.5,98.24,28.63,83.24,28.63,83.24Z"/><g class="cls-4"><path class="cls-229" d="M101.26,19.05c-2.68,8.42-9.33,13.82-14.86,12.07s-7.84-10-5.16-18.44S90.57-1.14,96.1.62,103.94,10.63,101.26,19.05Z"/></g><g class="cls-4"><path class="cls-230" d="M142.31,42.8C138.07,51.7,132,57.65,128.7,56.09s-2.5-10,1.74-18.94,10.33-14.85,13.61-13.29S146.55,33.9,142.31,42.8Z"/></g></g></g></g></svg>