<svg xmlns="http://www.w3.org/2000/svg" viewBox="0 0 187.24 196.47"><defs><style>.cls-1{fill:#e9e9eb;}.cls-2{fill:#f3f3f5;}.cls-3{fill:#c9d1d3;}.cls-4{fill:#fdfdfd;}.cls-5{fill:#c7004c;}</style></defs><title>origami-2</title><g id="Layer_2" data-name="Layer 2"><g id="objects"><polygon class="cls-1" points="175.19 0 101.78 95.23 96.58 17.97 175.19 0"/><polygon class="cls-2" points="64 56.79 101.78 95.23 96.58 17.97 64 56.79"/><polygon class="cls-2" points="42.28 105.66 66.2 57.11 20.11 57.11 42.28 105.66"/><polygon class="cls-1" points="158.76 159.53 42.28 105.66 66.2 57.11 158.76 159.53"/><polygon class="cls-3" points="94.46 103 158.76 159.53 102.62 97.41 94.46 103"/><polygon class="cls-2" points="187.24 26.53 94.46 103 106.61 26.53 187.24 26.53"/><polygon class="cls-4" points="66.2 57.11 94.46 103 106.61 26.53 66.2 57.11"/><polygon class="cls-5" points="20.11 57.11 0 64.77 28.29 75.03 20.11 57.11"/><polygon class="cls-2" points="141.77 196.47 125.03 122.2 158.19 158.37 141.77 196.47"/></g></g></svg>